<svg width="30" height="34" viewBox="0 0 30 34" fill="none" xmlns="http://www.w3.org/2000/svg">
<path d="M28.6364 13.9606L29.9148 11.1518C30 10.9421 30 10.6906 29.9148 10.481C29.8295 10.2294 29.6165 10.0617 29.4034 10.0198L26.4205 8.97173C26.2074 8.88788 25.9517 8.92981 25.7386 9.01365L23.9062 9.93597V10.0198C23.9062 10.1037 23.8636 10.1875 23.8636 10.2714L23.821 10.5229L23.9489 10.6067C24.2045 10.7744 24.375 10.9841 24.5028 11.2775L24.5881 11.4871L26.2926 10.6487L28.0824 11.2775L26.9744 13.7091C26.8466 13.9606 26.8892 14.296 27.0597 14.5476L27.9119 15.7214L26.6761 16.2245C26.3352 16.3503 26.1222 16.6437 26.1222 17.0211V18.3207L23.8636 19.4107C23.608 19.5365 23.4375 19.788 23.3949 20.0395L22.9688 22.6388L20.3693 23.4773C20.0284 23.5611 19.8153 23.8546 19.7727 24.19L19.517 27.0408L16.4489 28.0889C16.108 28.2146 15.8949 28.5081 15.8949 28.8435L15.6818 32.1555L8.52273 30.6043L7.32955 26.7892C7.2017 26.4119 6.8608 26.1604 6.43466 26.2023L2.00284 26.7054L1.96023 26.4958L2.98295 22.0519C3.02557 21.8003 2.98295 21.5488 2.8125 21.3392L1.83239 20.1653L3.92045 14.5476L6.94602 12.8706C7.2017 12.7029 7.37216 12.4514 7.37216 12.1579V11.2775L7.28693 11.2356C7.07386 11.1098 6.8608 10.9421 6.69034 10.8164L6.64773 10.7744H5.66761V11.6968L2.76989 13.2899C2.59943 13.3737 2.47159 13.5414 2.38636 13.7091L0.0426136 20.0395C-0.0426136 20.333 0 20.6265 0.170455 20.878L1.19318 22.0938L0.255682 26.3281C0.213068 26.4539 0.213068 26.5796 0.255682 26.6635L0.46875 27.7954C0.553977 28.1727 0.894886 28.4662 1.32102 28.4662C1.36364 28.4662 1.40625 28.4662 1.40625 28.4662L5.9233 27.9212L7.07386 31.5266C7.15909 31.8201 7.41477 32.0297 7.71307 32.1135L16.2784 33.9582C16.321 33.9582 16.4062 33.9582 16.4489 33.9582C16.6193 33.9582 16.8324 33.9162 16.9602 33.7905C17.1733 33.6228 17.3011 33.4132 17.3011 33.1616L17.5142 29.4304L20.5398 28.3823C20.8381 28.2566 21.0938 28.005 21.0938 27.6696L21.3494 24.8188L23.9489 24.0223C24.2472 23.9384 24.5028 23.645 24.5455 23.3096L24.8864 20.5426L27.1875 19.4107C27.4858 19.2849 27.6563 18.9915 27.6563 18.6561V17.4403L29.3608 16.7695C29.6165 16.6857 29.7869 16.476 29.8722 16.2245C29.9574 15.973 29.9148 15.7214 29.7443 15.5118L28.6364 13.9606Z" fill="#002C57"/>
<path d="M13.4233 24.1061C13.4233 24.9446 14.1478 25.6573 15 25.6573C15.8523 25.6573 16.5767 24.9446 16.5767 24.1061C16.5767 23.2676 15.8523 22.5549 15 22.5549C14.1052 22.5549 13.4233 23.2257 13.4233 24.1061ZM15 24.0223C15.0427 24.0223 15.0853 24.0642 15.0853 24.1061C15.0853 24.1899 14.9148 24.1899 14.9148 24.1061C14.9148 24.0642 14.9574 24.0223 15 24.0223Z" fill="#002C57"/>
<path d="M14.9999 20.9618L15.6391 20.291C16.4062 19.4525 23.0965 12.1159 23.0965 7.96547C23.0965 3.5635 19.4743 0 14.9999 0C10.5255 0 6.90332 3.5635 6.90332 7.96547C6.90332 12.1159 13.5937 19.4525 14.3607 20.291L14.9999 20.9618ZM14.9999 1.67694C18.5368 1.67694 21.392 4.48582 21.392 7.96547C21.392 10.6486 17.2158 15.9309 14.9999 18.4464C12.784 15.9309 8.60787 10.6486 8.60787 7.96547C8.60787 4.48582 11.463 1.67694 14.9999 1.67694Z" fill="#002C57"/>
<path d="M19.6448 8.55233C19.6448 6.03692 17.5567 3.98267 14.9999 3.98267C12.443 3.98267 10.355 6.03692 10.355 8.55233C10.355 11.0677 12.443 13.122 14.9999 13.122C17.5567 13.122 19.6448 11.0677 19.6448 8.55233ZM12.0595 8.55233C12.0595 6.95924 13.3805 5.65961 14.9999 5.65961C16.6192 5.65961 17.9402 6.95924 17.9402 8.55233C17.9402 10.1454 16.6192 11.4451 14.9999 11.4451C13.3805 11.4451 12.0595 10.1454 12.0595 8.55233Z" fill="#002C57"/>
</svg>
