<svg width="46" height="27" viewBox="0 0 46 27" fill="none" xmlns="http://www.w3.org/2000/svg">
<path d="M18.9765 27.0003H13.9243C13.5718 27.0003 13.2781 26.8215 13.1606 26.5235C13.0431 26.2255 13.0431 25.8679 13.2781 25.5698L19.9752 16.8083H13.9243C13.8656 16.8083 13.7481 16.8083 13.6893 16.7487L1.64625 13.3513C1.29377 13.2917 1.00004 12.9341 1.00004 12.5169V8.7619C1.00004 8.28508 1.41127 7.86786 1.88124 7.86786H4.58359L1.11753 2.0864C0.941292 1.78839 0.941292 1.49038 1.11753 1.19237C1.29377 0.894352 1.58751 0.775146 1.88124 0.775146H6.34599C6.58098 0.775146 6.75722 0.834749 6.93346 1.01356L14.2181 7.92746H37.5405C37.5993 7.92746 37.7167 7.92746 37.7755 7.92746C38.5392 8.10627 45.1188 9.95395 45.8825 13.6493C46.0588 14.5434 45.7651 15.199 45.4713 15.5566C44.8251 16.391 43.5327 16.8083 41.7115 16.8083C41.3003 16.8083 41.0066 16.8083 40.8891 16.7487H31.3721L19.564 26.7619C19.3878 26.8811 19.2115 27.0003 18.9765 27.0003ZM15.7455 25.2122H18.6828L30.4909 15.199C30.6671 15.0798 30.8434 15.0202 31.0784 15.0202H40.9478H41.0066C41.0066 15.0202 41.3003 15.0202 41.7115 15.0202C43.1215 15.0202 43.8852 14.7222 44.1201 14.4838C44.1789 14.4242 44.2376 14.3646 44.1789 14.0665C43.7089 11.8612 39.1267 10.1924 37.423 9.71554H13.9243C13.6893 9.71554 13.5131 9.65594 13.3369 9.47713L5.99351 2.56323H3.4674L6.87471 8.34468C7.05095 8.6427 7.05095 8.94071 6.87471 9.23872C6.69847 9.53674 6.40474 9.71554 6.111 9.71554H2.76244V11.8612L14.0418 15.0202H21.6789C22.0314 15.0202 22.3251 15.199 22.4426 15.497C22.5601 15.795 22.5601 16.1526 22.3251 16.4506L15.7455 25.2122Z" fill="#002C57"/>
</svg>
