<svg width="119" height="96" viewBox="0 0 119 96" fill="none" xmlns="http://www.w3.org/2000/svg">
<path d="M21.64 14.76C21.64 30.92 4.19995 33.64 4.19995 50.12V57H29.64V49H13C12.92 48.6 12.92 48.2 12.92 47.8C12.92 38.6 30.44 32.04 30.44 14.44C30.44 5.47998 25.96 0.359985 17.32 0.359985C8.67995 0.359985 4.19995 5.47998 4.19995 14.44V19.88H12.52V13.88C12.52 9.87998 14.28 8.35998 17.08 8.35998C19.88 8.35998 21.64 9.71998 21.64 14.76Z" fill="white"/>
<path d="M47.9987 13.88C47.9987 9.87998 49.7587 8.35998 52.5587 8.35998C55.3587 8.35998 57.1187 9.87998 57.1187 13.88V44.12C57.1187 48.12 55.3587 49.64 52.5587 49.64C49.7587 49.64 47.9987 48.12 47.9987 44.12V13.88ZM39.1987 43.56C39.1987 52.52 43.9187 57.64 52.5587 57.64C61.1987 57.64 65.9187 52.52 65.9187 43.56V14.44C65.9187 5.47998 61.1987 0.359985 52.5587 0.359985C43.9187 0.359985 39.1987 5.47998 39.1987 14.44V43.56Z" fill="white"/>
<path d="M97.3758 8.59998H89.5758V22.1H76.1758V29.9H89.5758V43.6H97.3758V29.9H110.776V22.1H97.3758V8.59998Z" fill="#E10000"/>
</svg>
