<svg width="15" height="14" viewBox="0 0 15 14" fill="none" xmlns="http://www.w3.org/2000/svg">
<path d="M10 10C9.81156 10.3369 10.0063 9.68717 9.53518 9.74332L9.51633 12.5027C9.51633 12.7086 9.34673 12.877 9.13945 12.877H1.50754C1.30025 12.877 1.13065 12.7086 1.13065 12.5027V1.49733C1.13065 1.29144 1.30025 1.12299 1.50754 1.12299H9.13945C9.34673 1.12299 9.51633 1.29144 9.51633 1.49733L9.47864 7.37395C9.70478 7.07448 9.99121 6.5 10.5 6.5C10.5 6.06952 10.6847 6.12605 10.7035 6.12605L10.6658 1.49733C10.6658 0.673797 9.98744 0 9.15829 0H1.50754C0.678392 0 0 0.673797 0 1.49733V12.5027C0 13.3262 0.678392 14 1.50754 14H9.13945C9.96859 14 10.647 13.3262 10.647 12.5027L10.6281 9.26203C10.1281 8.76203 9.40955 9.24332 10 10C9.50377 9.50535 9.94347 9.76203 10 10Z" fill="white"/>
<path d="M7.82035 4H2.73241C2.41206 4 2.16708 3.78333 2.16708 3.5C2.16708 3.21667 2.41206 3 2.73241 3H7.82035C8.1407 3 8.38568 3.21667 8.38568 3.5C8.38568 3.78333 8.1407 4 7.82035 4Z" fill="white"/>
<path d="M7.46973 6.04545H2.69735C2.39687 6.04545 2.16708 5.81894 2.16708 5.52273C2.16708 5.22652 2.39687 5 2.69735 5H7.46973C7.77022 5 8 5.22652 8 5.52273C8 5.81894 7.77022 6.04545 7.46973 6.04545Z" fill="white"/>
<path d="M5.63636 8H2.36364C2.15758 8 2 7.78333 2 7.5C2 7.21667 2.15758 7 2.36364 7H5.63636C5.84242 7 6 7.21667 6 7.5C6 7.78333 5.84242 8 5.63636 8Z" fill="white"/>
<path d="M8.57412 11.4091H5.95477L6.46357 8.63904L12.9083 3.64171L15 6.46791L8.57412 11.4091ZM7.3304 10.2861H8.19723L13.4548 6.24331L12.7198 5.23262L7.51884 9.25668L7.3304 10.2861Z" fill="white"/>
</svg>
