<svg width="13" height="15" viewBox="0 0 13 15" fill="none" xmlns="http://www.w3.org/2000/svg">
<path fill-rule="evenodd" clip-rule="evenodd" d="M11.0441 2.35933C10.4223 1.96369 9.70831 1.79094 9.15811 1.97434C8.49117 2.19666 7.64454 2.71061 6.71457 3.47198C5.79164 4.2276 4.81382 5.20443 3.8841 6.3201C2.94285 7.44959 2.21543 8.42256 1.72439 9.28689C1.2324 10.1529 0.999994 10.8717 1 11.5C1.00001 12.0691 1.33993 12.7019 1.82735 13.2198C2.06461 13.4719 2.31865 13.6766 2.54627 13.8148C2.77839 13.9557 2.93132 13.9963 2.99181 13.9997C2.99864 13.9978 3.02898 13.9895 3.08688 13.9576C3.1679 13.913 3.2706 13.84 3.39117 13.7362C3.63174 13.5291 3.90115 13.2361 4.15541 12.914C4.40877 12.593 4.63503 12.2585 4.79322 11.9761C4.87257 11.8345 4.92995 11.7146 4.96537 11.6218C4.99004 11.5573 4.99717 11.5234 4.99931 11.5139C4.99408 11.4829 4.97168 11.412 4.8969 11.2912C4.81581 11.1603 4.70388 11.0184 4.57359 10.8605C4.55227 10.8346 4.53011 10.8079 4.50747 10.7807C4.40193 10.6536 4.2858 10.5138 4.19479 10.3858C4.13801 10.306 4.07937 10.215 4.0336 10.1187C3.98986 10.0266 3.94095 9.89493 3.94095 9.74194C3.94095 9.59424 4.00185 9.46521 4.02449 9.41723L4.02455 9.4171C4.05904 9.34404 4.10393 9.26524 4.1523 9.18659C4.24998 9.02777 4.38439 8.83326 4.53956 8.62087C4.85132 8.19414 5.26728 7.66745 5.69272 7.15604C6.11791 6.64495 6.55891 6.14147 6.92134 5.7627C7.10142 5.5745 7.26978 5.40898 7.4113 5.28729C7.48109 5.22727 7.55496 5.16867 7.62752 5.12223C7.66381 5.09902 7.70927 5.07267 7.76091 5.05077C7.80655 5.03141 7.89235 5 8 5C8.15385 5 8.28399 5.04922 8.37589 5.09456C8.46978 5.14087 8.55639 5.19968 8.62967 5.25365C8.70396 5.30836 8.78059 5.37022 8.8516 5.42766L8.86269 5.43663C8.93259 5.49318 9.00048 5.5481 9.07193 5.60269C9.37867 5.83706 9.67135 6 10 6C10.0958 6 10.2727 5.94497 10.5198 5.76654C10.7555 5.59628 11.005 5.34963 11.2346 5.06265C11.4633 4.77672 11.6606 4.46532 11.7986 4.17566C11.9414 3.8758 12 3.64207 12 3.5C12 3.40631 11.9463 3.2316 11.7682 3.00071C11.5976 2.77955 11.3462 2.55159 11.0441 2.35933ZM12.56 2.38991C12.8037 2.7059 13 3.09369 13 3.5C13 3.85794 12.8711 4.24921 12.7014 4.60559C12.5269 4.97218 12.2867 5.34828 12.0154 5.68735C11.745 6.02537 11.432 6.34122 11.1052 6.57722C10.7898 6.80503 10.4042 7 10 7C9.32865 7 8.81249 6.66294 8.46482 6.39731C8.38191 6.33397 8.30403 6.27095 8.23605 6.21595L8.22271 6.20515C8.15167 6.14769 8.09422 6.10154 8.04276 6.06336C7.93968 6.15392 7.80447 6.28619 7.64387 6.45404C7.30313 6.81014 6.87827 7.29457 6.46148 7.79558C6.04496 8.29627 5.64285 8.80586 5.34702 9.21078C5.1984 9.41422 5.08164 9.58438 5.0041 9.71046C4.9937 9.72738 4.98438 9.74288 4.97609 9.75702C4.98553 9.77152 4.99667 9.78789 5.00971 9.80624C5.0769 9.90071 5.16239 10.0038 5.26651 10.1293C5.29161 10.1596 5.3178 10.1911 5.34507 10.2242C5.47583 10.3828 5.6268 10.5705 5.74705 10.7647C5.86277 10.9515 5.98563 11.1992 5.99937 11.4751C6.00842 11.6571 5.95249 11.84 5.89955 11.9786C5.84113 12.1316 5.75952 12.2973 5.66563 12.4649C5.47733 12.801 5.22011 13.1792 4.94034 13.5336C4.66147 13.8869 4.3481 14.2319 4.04359 14.4941C3.89162 14.6249 3.73121 14.7444 3.56945 14.8335C3.41509 14.9185 3.2168 15 2.99999 15C2.67163 15 2.32429 14.8499 2.02728 14.6696C1.71446 14.4797 1.3913 14.2156 1.09915 13.9052C0.527748 13.2981 9.47732e-06 12.4309 1.84582e-10 11.5C-8.88091e-06 10.6283 0.320465 9.73365 0.854909 8.79292C1.3903 7.85052 2.16289 6.82349 3.11588 5.67991C4.08039 4.5225 5.10258 3.49934 6.08109 2.69822C7.05257 1.90286 8.00883 1.30335 8.84189 1.02566C9.79169 0.709057 10.8277 1.03631 11.5809 1.51567C11.9663 1.76091 12.3087 2.0642 12.56 2.38991ZM4.93215 9.6785C4.9322 9.67852 4.93257 9.67944 4.93313 9.68119C4.93239 9.67936 4.93211 9.67847 4.93215 9.6785ZM4.92468 9.85313C4.92248 9.85978 4.92089 9.86341 4.92064 9.86357C4.92039 9.86373 4.92148 9.8604 4.92468 9.85313ZM7.92752 5.98869C7.92751 5.98866 7.92824 5.98893 7.92975 5.9896C7.92828 5.98906 7.92753 5.98872 7.92752 5.98869Z" fill="#002C57"/>
</svg>
