<svg width="22" height="8" viewBox="0 0 22 8" fill="none" xmlns="http://www.w3.org/2000/svg">
<path fill-rule="evenodd" clip-rule="evenodd" d="M0 3.64819C0 3.14448 0.447715 2.73615 1 2.73615L21 2.73615C21.5523 2.73615 22 3.14448 22 3.64819C22 4.1519 21.5523 4.56024 21 4.56024L1 4.56024C0.447715 4.56024 0 4.1519 0 3.64819Z" fill="#FF0101"/>
<path fill-rule="evenodd" clip-rule="evenodd" d="M21.7071 3.00328C22.0976 3.35946 22.0976 3.93693 21.7071 4.29311L18.7071 7.02925C18.3166 7.38543 17.6834 7.38543 17.2929 7.02925C16.9024 6.67308 16.9024 6.0956 17.2929 5.73942L19.5858 3.64819L17.2929 1.55696C16.9024 1.20079 16.9024 0.62331 17.2929 0.267133C17.6834 -0.0890441 18.3166 -0.0890441 18.7071 0.267133L21.7071 3.00328Z" fill="#FF0101"/>
</svg>
