<svg width="22" height="8" viewBox="0 0 22 8" fill="none" xmlns="http://www.w3.org/2000/svg">
<path fill-rule="evenodd" clip-rule="evenodd" d="M22 3.64819C22 3.14448 21.5523 2.73615 21 2.73615L1 2.73615C0.447716 2.73615 0 3.14448 0 3.64819C0 4.1519 0.447716 4.56024 1 4.56024L21 4.56024C21.5523 4.56024 22 4.1519 22 3.64819Z" fill="#002445"/>
<path fill-rule="evenodd" clip-rule="evenodd" d="M0.292894 3.00328C-0.0976295 3.35946 -0.0976295 3.93693 0.292894 4.29311L3.29289 7.02925C3.68342 7.38543 4.31658 7.38543 4.70711 7.02925C5.09763 6.67308 5.09763 6.0956 4.70711 5.73942L2.41422 3.64819L4.70711 1.55696C5.09763 1.20079 5.09763 0.62331 4.70711 0.267133C4.31658 -0.0890441 3.68342 -0.0890441 3.29289 0.267133L0.292894 3.00328Z" fill="#002445"/>
</svg>
