<svg width="14" height="18" viewBox="0 0 14 18" fill="none" xmlns="http://www.w3.org/2000/svg">
<path d="M7.5224 10.13L4.04852 9.57164V6.06204L7.5224 6.59379V10.13Z" fill="#002C57"/>
<path d="M7.86196 6.06204L4.04852 5.37076L6.60822 4.14771L10.0037 4.70606L7.86196 6.06204Z" fill="#002C57"/>
<path d="M10.056 8.77401L7.91418 10.13V6.5938L10.056 5.23782V8.77401Z" fill="#002C57"/>
<path d="M7.26119 18H6.97388C6.71269 18 6.55597 17.9734 5.43284 16.7238C5.04105 16.2718 4.23134 15.3412 3.31716 14.1448C1.90672 12.2836 0.182836 9.70458 0 7.81684C0 7.60414 0 7.36484 0 7.12555C0 3.19055 3.13433 0 7 0C10.8657 0 14 3.19055 14 7.12555C14 7.36484 14 7.60414 13.9739 7.84343C13.6343 11.2999 7.73134 17.5214 7.47015 17.7873L7.26119 18ZM7 1.32939C3.86567 1.32939 1.30597 3.93501 1.30597 7.12555C1.30597 7.31167 1.30597 7.52437 1.33209 7.71049C1.59328 10.2629 5.61567 15.0487 6.94776 16.4047C8.77612 14.4106 12.4328 10.0236 12.6679 7.71049C12.694 7.52437 12.694 7.31167 12.694 7.12555C12.694 3.93501 10.1343 1.32939 7 1.32939Z" fill="#002C57"/>
</svg>
