<svg width="110" height="150" viewBox="0 0 110 150" fill="none" xmlns="http://www.w3.org/2000/svg">
<path d="M56.2078 97.8V111H3.30781V100.5L30.3078 75C33.1745 72.2667 35.1078 69.9333 36.1078 68C37.1078 66 37.6078 64.0333 37.6078 62.1C37.6078 59.3 36.6411 57.1667 34.7078 55.7C32.8411 54.1667 30.0745 53.4 26.4078 53.4C23.3411 53.4 20.5745 54 18.1078 55.2C15.6411 56.3333 13.5745 58.0667 11.9078 60.4L0.107813 52.8C2.84115 48.7333 6.60781 45.5667 11.4078 43.3C16.2078 40.9667 21.7078 39.8 27.9078 39.8C33.1078 39.8 37.6411 40.6667 41.5078 42.4C45.4411 44.0667 48.4745 46.4667 50.6078 49.6C52.8078 52.6667 53.9078 56.3 53.9078 60.5C53.9078 64.3 53.1078 67.8667 51.5078 71.2C49.9078 74.5333 46.8078 78.3333 42.2078 82.6L26.1078 97.8H56.2078Z" fill="#F4001B"/>
<rect x="31.5" y="36.5" width="77" height="77" rx="3.5" stroke="#002C57" stroke-width="3"/>
<rect x="41.5" y="45.5" width="57" height="16" stroke="#002C57" stroke-width="3"/>
<rect x="41.5" y="70.5" width="10" height="10" stroke="#002C57" stroke-width="3"/>
<rect x="41.5" y="91.5" width="10" height="10" stroke="#002C57" stroke-width="3"/>
<rect x="88.5" y="70.5" width="10" height="10" stroke="#002C57" stroke-width="3"/>
<rect x="88.5" y="91.5" width="10" height="10" stroke="#002C57" stroke-width="3"/>
<rect x="64.5" y="70.5" width="10" height="10" stroke="#002C57" stroke-width="3"/>
<rect x="64.5" y="91.5" width="10" height="10" stroke="#002C57" stroke-width="3"/>
</svg>
