<svg width="128" height="150" viewBox="0 0 128 150" fill="none" xmlns="http://www.w3.org/2000/svg">
<path d="M37.0102 69.5C43.1435 70.5 47.8435 72.8 51.1102 76.4C54.3768 79.9333 56.0102 84.3333 56.0102 89.6C56.0102 93.6667 54.9435 97.4333 52.8102 100.9C50.6768 104.3 47.4102 107.033 43.0102 109.1C38.6768 111.167 33.3435 112.2 27.0102 112.2C22.0768 112.2 17.2102 111.567 12.4102 110.3C7.67682 108.967 3.64349 107.1 0.310156 104.7L6.61016 92.3C9.27682 94.3 12.3435 95.8667 15.8102 97C19.3435 98.0667 22.9435 98.6 26.6102 98.6C30.6768 98.6 33.8768 97.8333 36.2102 96.3C38.5435 94.7 39.7102 92.4667 39.7102 89.6C39.7102 83.8667 35.3435 81 26.6102 81H19.2102V70.3L33.6102 54H3.81016V41H52.8102V51.5L37.0102 69.5Z" fill="#F4001B"/>
<path fill-rule="evenodd" clip-rule="evenodd" d="M123 47H84.5C83.3954 47 84.5 47.8954 84.5 49V84C84.5 85.1046 83.3954 86 84.5 86H123C124.105 86 125 85.1046 125 84V49C125 47.8954 124.105 47 123 47ZM84.5 44C81.7386 44 81.5 45.7386 81.5 48.5V89H123C125.761 89 128 86.7614 128 84V49C128 46.2386 125.761 44 123 44H84.5Z" fill="#002C57"/>
<path fill-rule="evenodd" clip-rule="evenodd" d="M126 57H82V54H126V57ZM126 66H82V63H126V66Z" fill="#002C57"/>
<path fill-rule="evenodd" clip-rule="evenodd" d="M106.706 72.959C104.773 72.959 103.206 74.526 103.206 76.459C103.206 78.392 104.773 79.959 106.706 79.959C107.603 79.959 108.419 79.6232 109.039 79.0681L110.039 78.1728L111.04 79.0681C111.66 79.6232 112.475 79.959 113.373 79.959C115.306 79.959 116.873 78.392 116.873 76.459C116.873 74.526 115.306 72.959 113.373 72.959C112.475 72.959 111.66 73.2947 111.04 73.8498L110.039 74.7452L109.039 73.8498C108.419 73.2947 107.603 72.959 106.706 72.959ZM100.206 76.459C100.206 72.8691 103.116 69.959 106.706 69.959C107.924 69.959 109.065 70.2948 110.039 70.8779C111.014 70.2948 112.155 69.959 113.373 69.959C116.963 69.959 119.873 72.8691 119.873 76.459C119.873 80.0488 116.963 82.959 113.373 82.959C112.155 82.959 111.014 82.6232 110.039 82.04C109.065 82.6232 107.924 82.959 106.706 82.959C103.116 82.959 100.206 80.0488 100.206 76.459Z" fill="#002C57"/>
<path fill-rule="evenodd" clip-rule="evenodd" d="M41.5 42C41.5 38.4101 44.4101 35.5 48 35.5H88C88.8284 35.5 89.5 36.1716 89.5 37C89.5 37.8253 88.8335 38.495 88.0093 38.5C88.0067 38.5 88.0041 38.5 88.0014 38.5L88.0027 38.5L88.005 38.5L88.0083 38.5L87.9938 38.5004C87.9749 38.501 87.9402 38.5025 87.892 38.506C87.7952 38.5129 87.647 38.5274 87.4653 38.5577C87.0948 38.6195 86.6237 38.7402 86.1708 38.9666C85.7238 39.1902 85.3223 39.5019 85.0293 39.9414C84.7426 40.3716 84.5 41.0125 84.5 42V113.499C84.5 113.5 84.5 113.5 83 113.5L84.5 113.499C84.5 114.076 84.1695 114.602 83.6498 114.852C83.1301 115.102 82.5132 115.032 82.063 114.671L78 111.421L73.937 114.671C73.3892 115.11 72.6108 115.11 72.063 114.671L68 111.421L63.937 114.671C63.3892 115.11 62.6108 115.11 62.063 114.671L58 111.421L53.937 114.671C53.3892 115.11 52.6108 115.11 52.063 114.671L48 111.421L43.937 114.671C43.4868 115.032 42.8699 115.102 42.3502 114.852C41.8305 114.602 41.5 114.077 41.5 113.5V42ZM81.5 110.379V42C81.5 40.6003 81.8275 39.439 82.3921 38.5H48C46.067 38.5 44.5 40.067 44.5 42V110.379L47.063 108.329C47.6108 107.89 48.3892 107.89 48.937 108.329L53 111.579L57.063 108.329C57.6108 107.89 58.3892 107.89 58.937 108.329L63 111.579L67.063 108.329C67.6108 107.89 68.3892 107.89 68.937 108.329L73 111.579L77.063 108.329C77.6108 107.89 78.3892 107.89 78.937 108.329L81.5 110.379Z" fill="#002C57"/>
<path fill-rule="evenodd" clip-rule="evenodd" d="M88.0015 35.5C88.0008 35.5 88 35.5 88 37C88 38.5 87.9993 38.5 87.9986 38.5L87.9973 38.5L87.995 38.5L87.9917 38.5C87.9901 38.5 87.9896 38.4999 87.9902 38.5L88.0062 38.5004C88.0251 38.501 88.0598 38.5025 88.108 38.506C88.2048 38.5129 88.353 38.5274 88.5347 38.5577C88.9052 38.6195 89.3763 38.7402 89.8292 38.9666C90.2762 39.1902 90.6777 39.5019 90.9707 39.9414C91.2574 40.3716 91.5 41.0125 91.5 42V44H94.5V42C94.5 40.4875 94.1176 39.2534 93.4668 38.2773C92.8223 37.3106 91.9738 36.6848 91.1708 36.2834C90.3737 35.8848 89.5948 35.693 89.0278 35.5985C88.7408 35.5507 88.4983 35.5262 88.3217 35.5136C88.2332 35.5073 88.1604 35.5039 88.1061 35.5021C88.0789 35.5011 88.0563 35.5006 88.0385 35.5003L88.0155 35.5001L88.0068 35.5L88.0032 35.5L88.0015 35.5Z" fill="#002C57"/>
<path fill-rule="evenodd" clip-rule="evenodd" d="M51 47.5C51 46.6716 51.6716 46 52.5 46H74C74.8284 46 75.5 46.6716 75.5 47.5C75.5 48.3284 74.8284 49 74 49H52.5C51.6716 49 51 48.3284 51 47.5Z" fill="#002C57"/>
<path fill-rule="evenodd" clip-rule="evenodd" d="M51 57C51 56.1716 51.6716 55.5 52.5 55.5H74C74.8284 55.5 75.5 56.1716 75.5 57C75.5 57.8284 74.8284 58.5 74 58.5H52.5C51.6716 58.5 51 57.8284 51 57Z" fill="#002C57"/>
<path fill-rule="evenodd" clip-rule="evenodd" d="M51 67C51 66.1716 51.6716 65.5 52.5 65.5H74C74.8284 65.5 75.5 66.1716 75.5 67C75.5 67.8284 74.8284 68.5 74 68.5H52.5C51.6716 68.5 51 67.8284 51 67Z" fill="#002C57"/>
<path fill-rule="evenodd" clip-rule="evenodd" d="M51 76C51 75.1716 51.6716 74.5 52.5 74.5H74C74.8284 74.5 75.5 75.1716 75.5 76C75.5 76.8284 74.8284 77.5 74 77.5H52.5C51.6716 77.5 51 76.8284 51 76Z" fill="#002C57"/>
<path fill-rule="evenodd" clip-rule="evenodd" d="M63.5 101C63.5 100.172 64.1716 99.5 65 99.5H74C74.8284 99.5 75.5 100.172 75.5 101C75.5 101.828 74.8284 102.5 74 102.5H65C64.1716 102.5 63.5 101.828 63.5 101Z" fill="#002C57"/>
</svg>
