<svg width="126" height="150" viewBox="0 0 126 150" fill="none" xmlns="http://www.w3.org/2000/svg">
<path d="M68.0273 96.3H56.6273V111H40.8273V96.3H3.12734V85.4L36.1273 41H53.1273L22.5273 83.1H41.3273V70H56.6273V83.1H68.0273V96.3Z" fill="#F4001B"/>
<path fill-rule="evenodd" clip-rule="evenodd" d="M118 67.0001H91.9996C90.895 67.0001 91.4996 75.4018 91.4996 76.5001H87.9996C87.9996 77.5984 85.895 100.017 86.9996 100.017H118C119.104 100.017 120 99.1267 120 98.0283V67.2035C120 66.1052 119.104 67.0001 118 67.0001ZM91 64C88.2386 64 94 75.5 86.9996 75.5L87.4996 95.5001C87.4996 98.2459 82.2382 103 84.9996 103H118C120.761 103 123 100.774 123 98.0283V64.2205C123 64.2205 120.761 64.2205 118 64.2205L91 64Z" fill="#002C57"/>
<path fill-rule="evenodd" clip-rule="evenodd" d="M121 43H49C47.8954 43 47 43.8954 47 45V58L89 59L90.9996 64H92H123V45C123 43.8954 122.105 43 121 43ZM49 40C46.2386 40 44 42.2386 44 45V58L89.0004 60L90.2389 67H126V45C126 42.2386 123.761 40 121 40H49Z" fill="#002C57"/>
<path fill-rule="evenodd" clip-rule="evenodd" d="M89 43H80V52H89V43ZM77 40V55H92V40H77Z" fill="#002C57"/>
<path fill-rule="evenodd" clip-rule="evenodd" d="M84 76.5001H41C39.8954 76.5001 39 75.3955 39 76.5001V98.0001C39 99.1047 39.8954 100 41 100H84C85.1046 100 86 99.1047 86 98.0001V76.5001C86 75.3955 85.1046 76.5001 84 76.5001ZM41 74.0001C38.2386 74.0001 38 74 36 74V98.0001C36 100.762 38.2386 103 41 103H84C86.7614 103 89 100.762 89 98.0001V74.0001C89 74.0001 86.7614 74.0002 84 74.0002L41 74.0001Z" fill="#002C57"/>
<path fill-rule="evenodd" clip-rule="evenodd" d="M87 61H38C36.8954 61 36 61.8954 36 63V74.2962H89V63C89 61.8954 88.1046 61 87 61ZM38 58C35.2386 58 33 60.2386 33 63V77.2962H92V63C92 60.2386 89.7614 58 87 58H38Z" fill="#002C57"/>
<path fill-rule="evenodd" clip-rule="evenodd" d="M65 61H60V66H65V61ZM57 58V69H68V58H57Z" fill="#002C57"/>
</svg>
