<svg width="73" height="60" viewBox="0 0 81 66" fill="none" xmlns="http://www.w3.org/2000/svg">
<path fill-rule="evenodd" clip-rule="evenodd" d="M60.1484 7.49153C60.9531 6.79095 62.1661 6.84547 62.9048 7.61542L80.4433 25.8967C80.8005 26.2691 81 26.7652 81 27.2813V54C81 55.1046 80.1046 56 79 56C77.8955 56 77 55.1046 77 54V28.0855L61.3375 11.7597L56.3132 16.1335C55.4801 16.8588 54.2168 16.7713 53.4915 15.9382C52.7663 15.1051 52.8537 13.8418 53.6868 13.1165L60.1484 7.49153Z" fill="#002445"/>
<path fill-rule="evenodd" clip-rule="evenodd" d="M45.2255 5.51258C46.0164 4.80167 47.2253 4.834 47.9771 5.58617L71.4146 29.0363C71.7895 29.4113 72 29.9199 72 30.4501V59C72 60.1046 71.1046 61 70 61C68.8954 61 68 60.1046 68 59V31.2782L46.4888 9.75546L42.337 13.4874C41.5155 14.2258 40.251 14.1585 39.5126 13.337C38.7742 12.5155 38.8415 11.251 39.663 10.5126L45.2255 5.51258Z" fill="#E10000"/>
<path fill-rule="evenodd" clip-rule="evenodd" d="M28.6527 0.583401C29.4332 -0.194467 30.6958 -0.194467 31.4763 0.583401L61.4118 30.418C61.7884 30.7933 62 31.303 62 31.8346V64C62 65.1046 61.1046 66 60 66C58.8954 66 58 65.1046 58 64V32.665L30.0645 4.82366L4 30.8003V64C4 65.1046 3.10457 66 2 66C0.89543 66 0 65.1046 0 64V29.9699C0 29.4383 0.211642 28.9286 0.588176 28.5533L28.6527 0.583401Z" fill="#002445"/>
<path fill-rule="evenodd" clip-rule="evenodd" d="M7 50H25V64H7V50ZM11 54V60H21V54H11Z" fill="#002445"/>
<path fill-rule="evenodd" clip-rule="evenodd" d="M7 39H25V54H7V39ZM11 43V50H21V43H11Z" fill="#002445"/>
<path fill-rule="evenodd" clip-rule="evenodd" d="M35 50H53V64H35V50ZM39 54V60H49V54H39Z" fill="#002445"/>
<path fill-rule="evenodd" clip-rule="evenodd" d="M35 39H53V54H35V39ZM39 43V50H49V43H39Z" fill="#002445"/>
<path fill-rule="evenodd" clip-rule="evenodd" d="M35 30H53V43H35V30ZM39 34V39H49V34H39Z" fill="#002445"/>
<path fill-rule="evenodd" clip-rule="evenodd" d="M21 50H39V64H21V50ZM25 54V60H35V54H25Z" fill="#002445"/>
</svg>
