<svg width="96" height="73" viewBox="0 0 119 90" fill="none" xmlns="http://www.w3.org/2000/svg">
<path d="M20.64 32.76C20.64 48.92 3.19995 51.64 3.19995 68.12V75H28.64V67H12C11.92 66.6 11.92 66.2 11.92 65.8C11.92 56.6 29.44 50.04 29.44 32.44C29.44 23.48 24.96 18.36 16.32 18.36C7.67995 18.36 3.19995 23.48 3.19995 32.44V37.88H11.52V31.88C11.52 27.88 13.28 26.36 16.08 26.36C18.88 26.36 20.64 27.72 20.64 32.76Z" fill="#002445"/>
<path d="M46.9987 31.88C46.9987 27.88 48.7587 26.36 51.5587 26.36C54.3587 26.36 56.1187 27.88 56.1187 31.88V62.12C56.1187 66.12 54.3587 67.64 51.5587 67.64C48.7587 67.64 46.9987 66.12 46.9987 62.12V31.88ZM38.1987 61.56C38.1987 70.52 42.9187 75.64 51.5587 75.64C60.1987 75.64 64.9187 70.52 64.9187 61.56V32.44C64.9187 23.48 60.1987 18.36 51.5587 18.36C42.9187 18.36 38.1987 23.48 38.1987 32.44V61.56Z" fill="#002445"/>
<path d="M103.376 17.6H95.5758V31.1H82.1758V38.9H95.5758V52.6H103.376V38.9H116.776V31.1H103.376V17.6Z" fill="#E10000"/>
</svg>
