<svg width="78" height="87" viewBox="0 0 78 87" fill="none" xmlns="http://www.w3.org/2000/svg">
<path fill-rule="evenodd" clip-rule="evenodd" d="M14.7413 11.4114L34.5674 70.5259L74.211 58.5851C75.2686 58.2665 76.3842 58.8657 76.7028 59.9233C77.0213 60.9809 76.4222 62.0966 75.3646 62.4151L32.0081 75.4743L12.2587 16.5888L4.69141 19.3768C3.65494 19.7586 2.50516 19.228 2.12331 18.1915C1.74145 17.155 2.27212 16.0053 3.30858 15.6234L14.7413 11.4114Z" fill="#002445"/>
<path fill-rule="evenodd" clip-rule="evenodd" d="M62.8955 46.9742L37.9743 54.3861L39.3997 59.1786L64.3208 51.7668L62.8955 46.9742ZM33 51.6924L36.7059 64.153L69.2951 54.4605L65.5892 41.9999L33 51.6924Z" fill="#002445"/>
<path d="M27 34.6924L59.5892 24.9999L63.2951 37.4605L30.7059 47.153L27 34.6924Z" fill="#F4001B"/>
<path fill-rule="evenodd" clip-rule="evenodd" d="M51.8955 13.9742L26.9743 21.3861L28.3997 26.1786L53.3208 18.7668L51.8955 13.9742ZM22 18.6924L25.7059 31.153L58.2951 21.4605L54.5892 8.99991L22 18.6924Z" fill="#002445"/>
<path fill-rule="evenodd" clip-rule="evenodd" d="M26 83C29.3137 83 32 80.3137 32 77C32 73.6863 29.3137 71 26 71C22.6863 71 20 73.6863 20 77C20 80.3137 22.6863 83 26 83ZM26 87C31.5228 87 36 82.5228 36 77C36 71.4772 31.5228 67 26 67C20.4772 67 16 71.4772 16 77C16 82.5228 20.4772 87 26 87Z" fill="#002445"/>
</svg>
