<svg width="63" height="78" viewBox="0 0 70 87" fill="none" xmlns="http://www.w3.org/2000/svg">
<path d="M35 82.5428C18.981 82.5428 6 69.6114 6 53.6535C6 37.6956 18.981 24.7642 35 24.7642C51.019 24.7642 64 37.6956 64 53.6535C64 69.6114 51.019 82.5428 35 82.5428ZM35 28.8912C21.2595 28.8912 10.1429 39.9654 10.1429 53.6535C10.1429 67.3415 21.2595 78.4157 35 78.4157C48.7405 78.4157 59.8571 67.3415 59.8571 53.6535C59.8571 39.9654 48.7405 28.8912 35 28.8912Z" fill="#002445"/>
<path d="M10.1427 30.2669C9.59034 30.2669 9.107 30.0606 8.69272 29.6479C7.86415 28.8225 7.86415 27.5156 8.69272 26.7589L12.1451 23.3197C12.9737 22.4943 14.2856 22.4943 15.0451 23.3197C15.8737 24.1451 15.8737 25.452 15.0451 26.2087L11.5927 29.6479C11.1784 30.0606 10.6951 30.2669 10.1427 30.2669Z" fill="#002445"/>
<path d="M16.9098 34.0501C16.3575 34.0501 15.8051 33.8437 15.3908 33.3623L10.3503 27.8595C9.59078 27.0341 9.65983 25.7272 10.4884 24.9706C11.317 24.214 12.6289 24.2828 13.3884 25.1082L18.4289 30.6109C19.1884 31.4363 19.1194 32.7432 18.2908 33.4998C17.8765 33.8437 17.3932 34.0501 16.9098 34.0501Z" fill="#002445"/>
<path d="M61.1 30.2669C60.5476 30.2669 60.0643 30.0606 59.65 29.6479L56.1976 26.2087C55.369 25.3833 55.369 24.0764 56.1976 23.3197C57.0262 22.4943 58.3381 22.4943 59.0976 23.3197L62.55 26.7589C63.3786 27.5844 63.3786 28.8913 62.55 29.6479C62.1357 30.0606 61.6524 30.2669 61.1 30.2669Z" fill="#002445"/>
<path d="M54.3332 34.0501C53.8499 34.0501 53.3666 33.8437 52.9523 33.4998C52.1237 32.7432 52.0547 31.4363 52.8142 30.6109L57.8547 25.1082C58.6142 24.2828 59.9261 24.214 60.7547 24.9706C61.5832 25.7272 61.6523 27.0341 60.8927 27.8595L55.8523 33.3623C55.507 33.775 54.9547 34.0501 54.3332 34.0501Z" fill="#002445"/>
<path d="M43.6311 14.5841H27.7501C26.5763 14.5841 25.6787 13.6899 25.6787 12.5206C25.6787 11.3512 26.5763 10.457 27.7501 10.457H43.6311C44.8049 10.457 45.7025 11.3512 45.7025 12.5206C45.7025 13.6899 44.8049 14.5841 43.6311 14.5841Z" fill="#002445"/>
<path d="M35.6906 27.653C34.5168 27.653 33.6191 26.7588 33.6191 25.5895V13.5523C33.6191 12.383 34.5168 11.4888 35.6906 11.4888C36.8644 11.4888 37.762 12.383 37.762 13.5523V25.5895C37.762 26.7588 36.8644 27.653 35.6906 27.653Z" fill="#002445"/>
<path d="M37.2559 40C40.0524 40 41.942 40.3034 43.756 41.8961C45.7211 43.7163 46.2502 46.0675 46.2502 47.8877C46.2502 48.8737 46.099 51.5282 44.2094 53.4243C42.849 54.7895 40.8082 55.6238 37.9361 55.6238H34.8373V67.9105H30V40H37.2559ZM34.8373 51.4524H36.8024C37.7094 51.4524 38.9187 51.4524 39.9768 50.694C40.8838 50.0114 41.3373 48.8737 41.3373 47.8119C41.3373 46.4467 40.6571 45.5366 39.9768 45.0057C38.9943 44.3231 37.7094 44.2472 36.5756 44.2472H34.9128V51.4524H34.8373Z" fill="#F4001B"/>
<path fill-rule="evenodd" clip-rule="evenodd" d="M37.2559 40C40.0524 40 41.942 40.3034 43.756 41.8961C45.7211 43.7163 46.2502 46.0675 46.2502 47.8877C46.2502 48.8737 46.099 51.5282 44.2094 53.4243C42.849 54.7895 40.8082 55.6238 37.9361 55.6238H34.8373V58H42V61H34.8373V63H42V66H34.8373V67.9105H30V66H28V63H30V61H28V58H30V40H37.2559ZM34.9128 51.4524H36.8024C37.7094 51.4524 38.9187 51.4524 39.9768 50.694C40.8838 50.0114 41.3373 48.8737 41.3373 47.8119C41.3373 46.4467 40.6571 45.5366 39.9768 45.0057C38.9943 44.3231 37.7094 44.2472 36.5756 44.2472H34.9128V51.4524Z" fill="#E10000"/>
</svg>
