<svg width="63" height="78" viewBox="0 0 70 87" fill="none" xmlns="http://www.w3.org/2000/svg">
<path fill-rule="evenodd" clip-rule="evenodd" d="M33.0858 5.08579C33.8668 4.30474 35.1332 4.30474 35.9142 5.08579L65.9142 35.0858C66.2893 35.4609 66.5 35.9696 66.5 36.5V79.5C66.5 80.6046 65.6046 81.5 64.5 81.5C63.3954 81.5 62.5 80.6046 62.5 79.5V37.3284L34.5 9.32843L6.5 37.3284V79.5C6.5 80.6046 5.60457 81.5 4.5 81.5C3.39543 81.5 2.5 80.6046 2.5 79.5V36.5C2.5 35.9696 2.71071 35.4609 3.08579 35.0858L33.0858 5.08579Z" fill="#002445"/>
<path fill-rule="evenodd" clip-rule="evenodd" d="M11 54H37V80H11V54ZM15 58V76H33V58H15Z" fill="#002445"/>
<path fill-rule="evenodd" clip-rule="evenodd" d="M33 54H59V80H33V54ZM37 58V76H55V58H37Z" fill="#002445"/>
<path d="M24 30H48V54H24V30Z" fill="#E10000"/>
</svg>
