<svg width="100" height="60" viewBox="0 0 100 60" fill="none" xmlns="http://www.w3.org/2000/svg">
<path fill-rule="evenodd" clip-rule="evenodd" d="M21.528 0.0206071C12.0994 0.403116 2.19851 6.19456 0.147537 17.9742C-0.135857 19.6018 0.0262566 22.0007 0.329433 24.4477C0.642349 26.9734 1.14338 29.8158 1.667 32.4654C2.19161 35.1201 2.74408 37.607 3.16494 39.4287C3.37552 40.3401 3.55351 41.0866 3.67908 41.6061C3.73156 41.8232 3.77489 42.0008 3.80765 42.1342C3.8046 42.195 3.80101 42.265 3.79686 42.3437C3.77991 42.6649 3.75362 43.1308 3.71645 43.7042C3.64201 44.8522 3.5243 46.4254 3.35133 48.1297C2.99429 51.6475 2.43216 55.3669 1.65835 57.2343C1.40263 57.8515 1.47189 58.5555 1.84298 59.111C2.21407 59.6664 2.83799 60 3.506 60H27.5665C28.6711 60 29.5665 59.1045 29.5665 58V51.4965H40.9852C42.0897 51.4965 42.9852 50.6011 42.9852 49.4965V41.6318L47.4587 40.5777C48.0179 40.446 48.4935 40.0801 48.7642 39.5733C49.0348 39.0665 49.0745 38.4677 48.873 37.9297L42.9386 22.0825L42.0439 15.2336C42.0437 15.2319 42.0435 15.2302 42.0432 15.2285C40.7066 4.60835 30.865 -0.358189 21.528 0.0206071ZM5.81927 41.9379L7.81742 42.024C7.82571 41.8318 7.8062 41.6393 7.75952 41.4527L7.74721 41.4032L7.7098 41.2517C7.6769 41.1181 7.62852 40.9204 7.56711 40.6664C7.44429 40.1582 7.26944 39.4249 7.06228 38.5283C6.64766 36.7336 6.10501 34.2904 5.5911 31.6899C5.07619 29.0844 4.59529 26.3467 4.29908 23.9559C3.99313 21.4865 3.91893 19.6328 4.08825 18.6603C5.73866 9.18131 13.6516 4.34343 21.6901 4.01732C29.8186 3.68755 37.0954 7.93143 38.0751 15.732L38.0763 15.7418L39.002 22.8281C39.0218 22.9792 39.0587 23.1276 39.1122 23.2704L44.3305 37.2053L40.5265 38.1016C39.6233 38.3144 38.9852 39.1204 38.9852 40.0483V47.4965H27.5665C26.4619 47.4965 25.5665 48.3919 25.5665 49.4965V56H6.19518C6.7339 53.6794 7.09125 50.8946 7.33089 48.5336C7.51008 46.7681 7.63146 45.1444 7.70806 43.963C7.7464 43.3717 7.77362 42.8897 7.79131 42.5543C7.80016 42.3866 7.80662 42.2554 7.81091 42.1655L7.81572 42.0621L7.81696 42.0347L7.81728 42.0272L7.81738 42.0251C7.81738 42.0249 7.81742 42.024 5.81927 41.9379Z" fill="#002445"/>
<path fill-rule="evenodd" clip-rule="evenodd" d="M24.0017 24.2185C24.7205 23.3798 25.9831 23.2827 26.8218 24.0015C27.6604 24.7204 27.7575 25.983 27.0387 26.8216L23.1486 31.3601H76.6117L72.7217 26.8216C72.0028 25.983 72.0999 24.7204 72.9386 24.0015C73.7772 23.2827 75.0398 23.3798 75.7587 24.2185L82.4718 32.0504C82.4768 32.0562 82.4818 32.0621 82.4868 32.068L83.5943 33.3601L82.4868 34.6521C82.4818 34.658 82.4768 34.6639 82.4717 34.6697L75.7587 42.5016C75.0398 43.3403 73.7772 43.4374 72.9386 42.7186C72.0999 41.9997 72.0028 40.7371 72.7217 39.8985L76.6117 35.3601H23.1486L27.0387 39.8985C27.7575 40.7371 27.6604 41.9997 26.8218 42.7186C25.9831 43.4374 24.7205 43.3403 24.0017 42.5016L17.2889 34.6701C17.2836 34.664 17.2784 34.6579 17.2732 34.6518L16.166 33.3601L17.2732 32.0683C17.2784 32.0622 17.2836 32.0561 17.2889 32.05L24.0017 24.2185Z" fill="#E10000"/>
<path fill-rule="evenodd" clip-rule="evenodd" d="M78.9096 0.020714C88.1774 0.405246 97.8549 6.22533 99.8564 17.9816C100.132 19.6022 99.9747 21.9951 99.6782 24.4424C99.3724 26.9666 98.8827 29.808 98.3708 32.4571C97.858 35.1113 97.3179 37.5978 96.9064 39.4192C96.7006 40.3305 96.5266 41.0769 96.4038 41.5963C96.3517 41.8165 96.3089 41.996 96.2767 42.1301C96.2798 42.1923 96.2834 42.2645 96.2876 42.346C96.3041 42.6675 96.3299 43.1335 96.3662 43.7071C96.439 44.8555 96.5542 46.4292 96.7234 48.1341C97.0724 51.6515 97.6225 55.3766 98.3811 57.249C98.6309 57.8655 98.5578 58.5659 98.1861 59.1176C97.8144 59.6692 97.1927 60 96.5275 60H73.0017C71.8971 60 71.0017 59.1046 71.0017 58V51.4965H59.8812C58.7766 51.4965 57.8812 50.6011 57.8812 49.4965V41.6236L53.5315 40.5754C52.9771 40.4418 52.5061 40.078 52.2369 39.5753C51.9677 39.0726 51.9259 38.4789 52.1219 37.9434L57.9258 22.0925L58.8012 15.239C58.8014 15.2374 58.8016 15.2357 58.8018 15.234C60.1056 4.63988 69.7262 -0.36032 78.9096 0.020714ZM94.2656 41.9379L92.2674 42.0221C92.2594 41.834 92.2781 41.6457 92.3228 41.4629L92.3257 41.4512L92.3349 41.4133L92.3715 41.2618C92.4037 41.1281 92.451 40.9304 92.511 40.6763C92.6312 40.168 92.8021 39.4346 93.0047 38.5378C93.4102 36.7429 93.9409 34.2993 94.4435 31.6983C94.947 29.0923 95.4174 26.3535 95.7072 23.9613C96.0064 21.4923 96.0798 19.6325 95.9131 18.6529C94.2954 9.1506 86.5549 4.34137 78.7438 4.01728C70.8499 3.68975 63.7324 7.89997 62.7714 15.7266L62.7702 15.7362L61.8651 22.8224C61.8461 22.9707 61.8106 23.1163 61.7592 23.2567L56.6494 37.2123L60.3497 38.104C61.2481 38.3205 61.8812 39.1242 61.8812 40.0483V47.4965H73.0017C74.1062 47.4965 75.0017 48.392 75.0017 49.4965V56H93.8547C93.3275 53.6807 92.9776 50.8939 92.7429 48.5291C92.5678 46.7643 92.4491 45.1412 92.3742 43.9602C92.3368 43.3691 92.3102 42.8872 92.2929 42.552C92.2842 42.3844 92.2779 42.2533 92.2737 42.1634L92.269 42.0601L92.2674 42.0232C92.2674 42.023 92.2674 42.0221 94.2656 41.9379Z" fill="#002445"/>
</svg>
