<svg width="114" height="59" viewBox="0 0 114 59" fill="none" xmlns="http://www.w3.org/2000/svg">
<path d="M17.6402 15.76C17.6402 31.92 0.200195 34.64 0.200195 51.12V58H25.6402V50H9.00019C8.92019 49.6 8.92019 49.2 8.92019 48.8C8.92019 39.6 26.4402 33.04 26.4402 15.44C26.4402 6.47998 21.9602 1.35999 13.3202 1.35999C4.68019 1.35999 0.200195 6.47998 0.200195 15.44V20.88H8.5202V14.88C8.5202 10.88 10.2802 9.35998 13.0802 9.35998C15.8802 9.35998 17.6402 10.72 17.6402 15.76Z" fill="#002445"/>
<path d="M43.9989 14.88C43.9989 10.88 45.7589 9.35998 48.5589 9.35998C51.3589 9.35998 53.1189 10.88 53.1189 14.88V45.12C53.1189 49.12 51.3589 50.64 48.5589 50.64C45.7589 50.64 43.9989 49.12 43.9989 45.12V14.88ZM35.1989 44.56C35.1989 53.52 39.9189 58.64 48.5589 58.64C57.1989 58.64 61.9189 53.52 61.9189 44.56V15.44C61.9189 6.47998 57.1989 1.35999 48.5589 1.35999C39.9189 1.35999 35.1989 6.47998 35.1989 15.44V44.56Z" fill="#002445"/>
<path d="M100.376 0.599976H92.5758V14.1H79.1758V21.9H92.5758V35.6H100.376V21.9H113.776V14.1H100.376V0.599976Z" fill="#E10000"/>
</svg>
