<svg width="12" height="8" viewBox="0 0 12 8" fill="none" xmlns="http://www.w3.org/2000/svg">
<path fill-rule="evenodd" clip-rule="evenodd" d="M0 4.11743C0 3.61372 0.447715 3.20538 1 3.20538L11 3.20538C11.5523 3.20538 12 3.61372 12 4.11743C12 4.62114 11.5523 5.02948 11 5.02948H1C0.447715 5.02948 0 4.62114 0 4.11743Z" fill="#002445"/>
<path fill-rule="evenodd" clip-rule="evenodd" d="M11.7071 3.47252C12.0976 3.82869 12.0976 4.40617 11.7071 4.76235L8.70711 7.49849C8.31658 7.85467 7.68342 7.85467 7.29289 7.49849C6.90237 7.14232 6.90237 6.56484 7.29289 6.20866L9.58579 4.11743L7.29289 2.0262C6.90237 1.67002 6.90237 1.09255 7.29289 0.736371C7.68342 0.380194 8.31658 0.380194 8.70711 0.736371L11.7071 3.47252Z" fill="#002445"/>
</svg>
