<svg width="30" height="30" viewBox="0 0 30 30" fill="none" xmlns="http://www.w3.org/2000/svg">
<path fill-rule="evenodd" clip-rule="evenodd" d="M26.6434 30.0005H3.14685C1.46853 30.0005 0 28.532 0 26.8536V3.14734C0 1.46902 1.46853 0.000488281 3.14685 0.000488281H26.6434C28.3217 0.000488281 29.7902 1.46902 29.7902 3.14734V26.6438C30 28.532 28.5315 30.0005 26.6434 30.0005ZM14.6853 9.65084C11.5385 9.65084 9.02098 12.1683 9.02098 15.3152C9.02098 18.462 11.7483 20.7697 14.6853 20.7697C17.6224 20.7697 20.3497 18.2522 20.3497 15.1054C20.3497 11.9585 17.8322 9.65084 14.6853 9.65084ZM26.2238 5.24524C26.2238 4.40608 25.5944 3.56692 24.5455 3.56692H22.2378C21.3986 3.56692 20.5594 4.19629 20.5594 5.24524V7.97252C20.5594 8.81168 21.1888 9.65084 22.2378 9.65084H24.5455C25.3846 9.65084 26.2238 9.02147 26.2238 7.97252V5.24524ZM26.2238 12.7977H23.4965C23.7063 13.6369 23.9161 14.2662 23.9161 15.1054C23.9161 20.1403 19.7203 24.3362 14.6853 24.3362C9.65035 24.3362 5.45455 20.1403 5.45455 15.1054C5.45455 14.2662 5.66434 13.4271 5.87413 12.7977H3.56643V25.1753C3.56643 26.0145 4.1958 26.8536 5.24476 26.8536H24.7552C25.5944 26.8536 26.4336 26.2243 26.4336 25.1753V12.7977H26.2238Z" fill="#002C57"/>
</svg>
