<svg width="22" height="17" viewBox="0 0 22 17" fill="none" xmlns="http://www.w3.org/2000/svg">
<path d="M19.5755 0.48291H2.42449C1.70612 0.48291 1.07755 0.857999 0.628571 1.32686C0.269388 1.79572 0 2.35836 0 3.01476V14.3612C0 15.7678 1.07755 16.8931 2.42449 16.8931H19.5755C20.9224 16.8931 22 15.7678 22 14.3612V3.01476C22 1.60818 20.9224 0.48291 19.5755 0.48291ZM19.5755 1.8895C19.6653 1.8895 19.7551 1.8895 19.8449 1.98327L11.4041 9.29751C11.1347 9.48505 10.8653 9.48505 10.5959 9.29751L2.33469 1.8895H2.42449H19.5755ZM19.5755 15.4865H2.42449C1.79592 15.4865 1.34694 15.0176 1.34694 14.3612V3.01476V2.92099L9.69796 10.329C10.0571 10.6103 10.5061 10.7979 10.9551 10.7979C11.4041 10.7979 11.8531 10.6103 12.2122 10.329L20.6531 3.01476V14.3612C20.6531 15.0176 20.2041 15.4865 19.5755 15.4865Z" fill="#002C57"/>
</svg>
