<svg width="18" height="22" viewBox="0 0 18 22" fill="none" xmlns="http://www.w3.org/2000/svg">
<path d="M17.2514 5.3704L17.3392 5.12496C17.482 4.61718 16.8597 3.15963 15.8595 2.28916C15.8595 2.28916 15.8595 2.28916 15.7881 2.21662C15.7166 2.14408 15.5737 2.07155 15.5023 1.99901C14.8594 1.49123 14.0735 0.910918 12.4304 0.838379C12.359 0.838379 12.2875 0.838379 12.2161 0.838379C11.5017 0.838379 9.64429 1.70885 4.64355 7.7296L4.57211 7.80214C4.57211 7.87468 4.42923 8.01976 4.28635 8.23738L4.21491 8.38246C3.07189 9.97832 0.500075 13.6778 0 16.2892V16.3618V16.5068C0.285757 19.1908 1.92886 20.9317 4.71499 21.2944H4.98795L5.21506 21.2219C6.35809 19.9162 7.21536 18.3929 7.85831 16.6519L7.90938 16.4958C7.90938 16.4958 7.9373 16.2826 7.93332 16.2167C7.92933 16.1508 7.88792 15.9541 7.74185 15.8078C7.59578 15.6614 6.85816 14.911 6.28665 14.5483L5.92945 14.3307L11.0731 7.65706L11.3588 8.01976C11.8589 8.67261 12.4304 9.03531 13.1448 9.18039H13.3591L13.5735 9.10785C15.0022 8.0923 16.3227 6.82119 17.2514 5.3704ZM13.2163 7.7296L13.0734 7.87468L12.8591 7.80214C12.0732 7.36691 11.6276 6.33665 11.6276 6.33665L11.1648 5.52916L3.92916 14.9835L4.85787 15.2011C5.21506 15.3094 5.71514 15.3462 6.50097 16.2167C6.50097 16.2167 6.54916 16.2624 6.57241 16.3671C6.59565 16.4717 6.57241 16.5794 6.57241 16.5794C6.07233 17.8126 5.50082 18.9732 4.71499 19.9887L4.56501 20.0613H4.35779C2.42893 19.626 1.35734 18.3929 1.21447 16.4343V16.3618V16.2892C1.71454 13.8954 4.21491 10.341 5.14362 8.96277C5.35794 8.67261 5.50082 8.45499 5.57226 8.38246C10.0015 3.01455 11.716 2.14408 12.1447 1.99901H12.2161H12.2875C13.6449 2.07155 14.2164 2.50678 14.7879 2.94202C14.9185 3.04145 15.0218 3.14048 15.1451 3.23217C15.7166 3.81249 16.0024 4.3928 16.1453 4.68296V4.86036L16.0738 5.04565C15.288 6.0612 14.3593 7.00421 13.2163 7.7296Z" fill="#002C57"/>
</svg>
