<svg width="96" height="52" viewBox="0 0 107 58" fill="none" xmlns="http://www.w3.org/2000/svg">
<path d="M17.64 14.76C17.64 30.92 0.199951 33.64 0.199951 50.12V57H25.64V49H8.99995C8.91995 48.6 8.91995 48.2 8.91995 47.8C8.91995 38.6 26.44 32.04 26.44 14.44C26.44 5.47998 21.96 0.359985 13.32 0.359985C4.67995 0.359985 0.199951 5.47998 0.199951 14.44V19.88H8.51995V13.88C8.51995 9.87998 10.28 8.35998 13.08 8.35998C15.88 8.35998 17.64 9.71998 17.64 14.76Z" fill="white"/>
<path d="M43.9987 13.88C43.9987 9.87998 45.7587 8.35998 48.5587 8.35998C51.3587 8.35998 53.1187 9.87998 53.1187 13.88V44.12C53.1187 48.12 51.3587 49.64 48.5587 49.64C45.7587 49.64 43.9987 48.12 43.9987 44.12V13.88ZM35.1987 43.56C35.1987 52.52 39.9187 57.64 48.5587 57.64C57.1987 57.64 61.9187 52.52 61.9187 43.56V14.44C61.9187 5.47998 57.1987 0.359985 48.5587 0.359985C39.9187 0.359985 35.1987 5.47998 35.1987 14.44V43.56Z" fill="white"/>
<path d="M93.3758 8.59998H85.5758V22.1H72.1758V29.9H85.5758V43.6H93.3758V29.9H106.776V22.1H93.3758V8.59998Z" fill="#E10000"/>
</svg>
