<svg width="78" height="87" viewBox="0 0 78 87" fill="none" xmlns="http://www.w3.org/2000/svg">
<path fill-rule="evenodd" clip-rule="evenodd" d="M14.7413 11.4113L34.5675 70.5258L74.211 58.585C75.2686 58.2664 76.3843 58.8655 76.7028 59.9232C77.0214 60.9808 76.4223 62.0964 75.3646 62.415L32.0082 75.4742L12.2588 16.5887L4.69147 19.3767C3.655 19.7585 2.50522 19.2279 2.12337 18.1914C1.74151 17.1549 2.27218 16.0051 3.30864 15.6233L14.7413 11.4113Z" fill="white"/>
<path fill-rule="evenodd" clip-rule="evenodd" d="M62.8955 46.9742L37.9743 54.3861L39.3997 59.1786L64.3208 51.7668L62.8955 46.9742ZM33 51.6924L36.7059 64.153L69.2951 54.4605L65.5892 41.9999L33 51.6924Z" fill="white"/>
<path d="M27 34.6924L59.5892 24.9999L63.2951 37.4605L30.7059 47.153L27 34.6924Z" fill="#F4001B"/>
<path fill-rule="evenodd" clip-rule="evenodd" d="M51.8955 13.9743L26.9743 21.3862L28.3997 26.1788L53.3208 18.7669L51.8955 13.9743ZM22 18.6925L25.7059 31.1531L58.2951 21.4606L54.5892 9.00003L22 18.6925Z" fill="white"/>
<path fill-rule="evenodd" clip-rule="evenodd" d="M26 83C29.3137 83 32 80.3137 32 77C32 73.6863 29.3137 71 26 71C22.6863 71 20 73.6863 20 77C20 80.3137 22.6863 83 26 83ZM26 87C31.5228 87 36 82.5228 36 77C36 71.4772 31.5228 67 26 67C20.4772 67 16 71.4772 16 77C16 82.5228 20.4772 87 26 87Z" fill="white"/>
</svg>
