<svg width="63" height="78" viewBox="0 0 70 87" fill="none" xmlns="http://www.w3.org/2000/svg">
<path d="M35 82.5428C18.981 82.5428 6 69.6114 6 53.6535C6 37.6956 18.981 24.7642 35 24.7642C51.019 24.7642 64 37.6956 64 53.6535C64 69.6114 51.019 82.5428 35 82.5428ZM35 28.8912C21.2595 28.8912 10.1429 39.9654 10.1429 53.6535C10.1429 67.3415 21.2595 78.4157 35 78.4157C48.7405 78.4157 59.8571 67.3415 59.8571 53.6535C59.8571 39.9654 48.7405 28.8912 35 28.8912Z" fill="white"/>
<path d="M10.143 30.2669C9.59058 30.2669 9.10725 30.0606 8.69296 29.6479C7.86439 28.8225 7.86439 27.5156 8.69296 26.7589L12.1453 23.3197C12.9739 22.4943 14.2858 22.4943 15.0453 23.3197C15.8739 24.1451 15.8739 25.452 15.0453 26.2087L11.593 29.6479C11.1787 30.0606 10.6953 30.2669 10.143 30.2669Z" fill="white"/>
<path d="M16.9096 34.0501C16.3572 34.0501 15.8048 33.8437 15.3905 33.3623L10.3501 27.8595C9.59054 27.0341 9.65959 25.7272 10.4882 24.9706C11.3167 24.214 12.6286 24.2828 13.3882 25.1082L18.4286 30.6109C19.1882 31.4363 19.1191 32.7432 18.2905 33.4998C17.8763 33.8437 17.3929 34.0501 16.9096 34.0501Z" fill="white"/>
<path d="M61.1002 30.2669C60.5479 30.2669 60.0645 30.0606 59.6502 29.6479L56.1978 26.2087C55.3693 25.3833 55.3693 24.0764 56.1978 23.3197C57.0264 22.4943 58.3383 22.4943 59.0979 23.3197L62.5502 26.7589C63.3788 27.5844 63.3788 28.8913 62.5502 29.6479C62.1359 30.0606 61.6526 30.2669 61.1002 30.2669Z" fill="white"/>
<path d="M54.3335 34.0501C53.8501 34.0501 53.3668 33.8437 52.9525 33.4998C52.1239 32.7432 52.0549 31.4363 52.8144 30.6109L57.8549 25.1082C58.6144 24.2828 59.9263 24.214 60.7549 24.9706C61.5835 25.7272 61.6525 27.0341 60.893 27.8595L55.8525 33.3623C55.5073 33.775 54.9549 34.0501 54.3335 34.0501Z" fill="white"/>
<path d="M43.6308 14.5841H27.7499C26.5761 14.5841 25.6785 13.6899 25.6785 12.5206C25.6785 11.3512 26.5761 10.457 27.7499 10.457H43.6308C44.8047 10.457 45.7023 11.3512 45.7023 12.5206C45.7023 13.6899 44.8047 14.5841 43.6308 14.5841Z" fill="white"/>
<path d="M35.6903 27.653C34.5165 27.653 33.6189 26.7588 33.6189 25.5895V13.5523C33.6189 12.383 34.5165 11.4888 35.6903 11.4888C36.8641 11.4888 37.7618 12.383 37.7618 13.5523V25.5895C37.7618 26.7588 36.8641 27.653 35.6903 27.653Z" fill="white"/>
<path d="M37.2559 40C40.0524 40 41.942 40.3034 43.756 41.8961C45.7211 43.7163 46.2502 46.0675 46.2502 47.8877C46.2502 48.8737 46.099 51.5282 44.2094 53.4243C42.849 54.7895 40.8082 55.6238 37.9361 55.6238H34.8373V67.9105H30V40H37.2559ZM34.8373 51.4524H36.8024C37.7094 51.4524 38.9187 51.4524 39.9768 50.694C40.8838 50.0114 41.3373 48.8737 41.3373 47.8119C41.3373 46.4467 40.6571 45.5366 39.9768 45.0057C38.9943 44.3231 37.7094 44.2472 36.5756 44.2472H34.9128V51.4524H34.8373Z" fill="white"/>
<path d="M37.2559 40C40.0524 40 41.942 40.3034 43.756 41.8961C45.7211 43.7163 46.2502 46.0675 46.2502 47.8877C46.2502 48.8737 46.099 51.5282 44.2094 53.4243C42.849 54.7895 40.8082 55.6238 37.9361 55.6238H34.8373V67.9105H30V40H37.2559ZM34.8373 51.4524H36.8024C37.7094 51.4524 38.9187 51.4524 39.9768 50.694C40.8838 50.0114 41.3373 48.8737 41.3373 47.8119C41.3373 46.4467 40.6571 45.5366 39.9768 45.0057C38.9943 44.3231 37.7094 44.2472 36.5756 44.2472H34.9128V51.4524H34.8373Z" fill="#F4001B"/>
<path d="M42 58H28V61H42V58Z" fill="#F4001B"/>
<path d="M42 63H28V66H42V63Z" fill="#F4001B"/>
</svg>
