<svg width="72" height="73" viewBox="0 0 72 73" fill="none" xmlns="http://www.w3.org/2000/svg">
<g clip-path="url(#clip0)">
<path d="M45.8809 73H6.3569C5.32043 73 4.42216 72.2389 4.28397 71.201C4.14577 70.163 4.83675 69.1943 5.80412 68.9175C11.7465 67.3261 12.5757 64.2123 12.5757 61.0986V51.2038H16.7216V61.0986C16.7216 64.2815 15.8924 66.9109 14.165 68.9175H45.95C50.0268 68.9175 53.4126 65.5962 53.4126 61.4445V9.34123C53.3435 4.22085 57.4893 0 62.6717 0C67.854 0 71.9999 4.22085 71.9999 9.34123V20.0664H67.854V9.34123C67.854 6.50427 65.5047 4.15166 62.6717 4.15166C59.8387 4.15166 57.4893 6.50427 57.4893 9.34123V61.4445C57.4893 67.8104 52.307 73 45.8809 73Z" fill="#002445"/>
<path d="M62.6718 4.15166H29.0212C27.8465 4.15166 26.9482 3.25213 26.9482 2.07583C26.9482 0.899526 27.8465 0 29.0212 0H62.6718C63.8465 0 64.7448 0.899526 64.7448 2.07583C64.7448 3.25213 63.7774 4.15166 62.6718 4.15166Z" fill="#002445"/>
<path d="M69.927 21.658H55.4164C54.2418 21.658 53.3435 20.7585 53.3435 19.5822C53.3435 18.4059 54.2418 17.5063 55.4164 17.5063H69.927C71.1017 17.5063 71.9999 18.4059 71.9999 19.5822C71.9999 20.7585 71.0326 21.658 69.927 21.658Z" fill="#002445"/>
<path d="M15.6852 32.867C7.04799 32.867 0 25.8092 0 17.1599C0 8.5106 7.04799 1.52197 15.6852 1.52197C24.3225 1.52197 31.3704 8.57979 31.3704 17.2291C31.3013 25.8092 24.3225 32.867 15.6852 32.867ZM15.6852 5.67363C9.32822 5.67363 4.14587 10.794 4.14587 17.1599C4.14587 23.5258 9.32822 28.7153 15.6852 28.7153C22.0422 28.7153 27.1555 23.5258 27.1555 17.1599C27.1555 10.794 22.0422 5.67363 15.6852 5.67363Z" fill="#C8192C"/>
<path d="M15.6853 20.2046C14.027 20.2046 12.7141 18.8899 12.7141 17.2293C12.7141 15.5686 14.027 14.2539 15.6853 14.2539C17.3437 14.2539 18.6565 15.5686 18.6565 17.2293C18.6565 18.8899 17.3437 20.2046 15.6853 20.2046Z" fill="#C8192C"/>
<path d="M5.7352 51.2035C5.38971 51.2035 5.04422 51.1343 4.69873 50.9268C4.00776 50.5116 3.59317 49.6813 3.66227 48.9201L6.01159 28.3002C6.14979 27.1931 7.18626 26.3628 8.29182 26.5012C9.39739 26.6395 10.2266 27.6775 10.0884 28.7846L8.29182 44.5609L14.3033 39.9249C15.0634 39.3713 16.0308 39.3713 16.7909 39.9249L21.9732 43.7305L21.0749 28.6462C21.0058 27.4699 21.9041 26.5012 23.0097 26.432C24.1843 26.3628 25.1517 27.2623 25.2208 28.3694L26.3955 47.8822C26.4646 48.7125 26.05 49.4737 25.2899 49.8196C24.5989 50.2348 23.7007 50.1656 23.0788 49.6813L15.5471 44.1457L6.90987 50.7884C6.63348 51.0651 6.21889 51.2035 5.7352 51.2035Z" fill="#C8192C"/>
<path d="M47.6777 37.7107H31.2324C30.0577 37.7107 29.1594 36.8112 29.1594 35.6349C29.1594 34.4586 30.0577 33.5591 31.2324 33.5591H47.6777C48.8523 33.5591 49.7506 34.4586 49.7506 35.6349C49.7506 36.8112 48.8523 37.7107 47.6777 37.7107Z" fill="#002445"/>
<path d="M47.6776 47.2596H32.3378C31.1632 47.2596 30.2649 46.36 30.2649 45.1837C30.2649 44.0074 31.1632 43.1079 32.3378 43.1079H47.6776C48.8522 43.1079 49.7505 44.0074 49.7505 45.1837C49.7505 46.36 48.8522 47.2596 47.6776 47.2596Z" fill="#002445"/>
<path d="M46.8484 56.0472H29.0212C27.8465 56.0472 26.9482 55.1476 26.9482 53.9713C26.9482 52.795 27.8465 51.8955 29.0212 51.8955H46.8484C48.0231 51.8955 48.9214 52.795 48.9214 53.9713C48.9214 55.1476 48.0231 56.0472 46.8484 56.0472Z" fill="#002445"/>
<path d="M47.5394 64.8353H23.6315C22.4569 64.8353 21.5586 63.9357 21.5586 62.7594C21.5586 61.5831 22.4569 60.6836 23.6315 60.6836H47.6085C48.7832 60.6836 49.6814 61.5831 49.6814 62.7594C49.6814 63.9357 48.7141 64.8353 47.5394 64.8353Z" fill="#002445"/>
</g>
<defs>
<clipPath id="clip0">
<rect width="72" height="73" fill="white"/>
</clipPath>
</defs>
</svg>
