<svg width="65" height="78" viewBox="0 0 65 78" fill="none" xmlns="http://www.w3.org/2000/svg">
<path fill-rule="evenodd" clip-rule="evenodd" d="M10.0734 2C10.0734 0.89543 10.9689 0 12.0734 0H51.2478C52.3523 0 53.2478 0.89543 53.2478 2V41.9725H63.0001C63.8024 41.9725 64.527 42.4519 64.8408 43.1903C65.1545 43.9288 64.9967 44.7832 64.4397 45.3607L34.2196 76.7002C33.8448 77.0888 33.3289 77.3094 32.789 77.3119C32.2492 77.3144 31.7313 77.0985 31.353 76.7133L0.573158 45.3739C0.00863528 44.7991 -0.155895 43.9417 0.155762 43.1988C0.467419 42.4559 1.19441 41.9725 2.00005 41.9725H10.0734V2ZM14.0734 4V43.9725C14.0734 45.077 13.178 45.9725 12.0734 45.9725H6.76763L32.7667 72.4443L58.2931 45.9725H51.2478C50.1432 45.9725 49.2478 45.077 49.2478 43.9725V4H14.0734Z" fill="#002445"/>
<path d="M34.2559 16C37.0524 16 38.9419 16.3397 40.7559 18.1231C42.721 20.1613 43.2501 22.794 43.2501 24.8322C43.2501 25.9362 43.099 28.9086 41.2094 31.0317C39.8489 32.5604 37.8082 33.4946 34.9361 33.4946H31.8372V47.2524H27V16H34.2559ZM31.8372 28.8237H33.8024C34.7094 28.8237 35.9187 28.8237 36.9768 27.9744C37.8838 27.2101 38.3373 25.9362 38.3373 24.7473C38.3373 23.2186 37.6571 22.1995 36.9768 21.6051C35.9943 20.8407 34.7094 20.7558 33.5756 20.7558H31.9128V28.8237H31.8372Z" fill="#C8192C"/>
<path d="M34.2559 16C37.0524 16 38.9419 16.3397 40.7559 18.1231C42.721 20.1613 43.2501 22.794 43.2501 24.8322C43.2501 25.9362 43.099 28.9086 41.2094 31.0317C39.8489 32.5604 37.8082 33.4946 34.9361 33.4946H31.8372V47.2524H27V16H34.2559ZM31.8372 28.8237H33.8024C34.7094 28.8237 35.9187 28.8237 36.9768 27.9744C37.8838 27.2101 38.3373 25.9362 38.3373 24.7473C38.3373 23.2186 37.6571 22.1995 36.9768 21.6051C35.9943 20.8407 34.7094 20.7558 33.5756 20.7558H31.9128V28.8237H31.8372Z" fill="#C8192C"/>
<path d="M39.0834 35.5449H24V39.1699H39.0834V35.5449Z" fill="#C8192C"/>
<path d="M39.0834 41.6792H24V45.3047H39.0834V41.6792Z" fill="#C8192C"/>
</svg>
