<svg width="25" height="30" viewBox="0 0 25 30" fill="none" xmlns="http://www.w3.org/2000/svg">
<path fill-rule="evenodd" clip-rule="evenodd" d="M16 9.07694C16 8.52466 15.5523 8.07694 15 8.07694H3.15385C2.60156 8.07694 2.15385 8.52466 2.15385 9.07694V20.9231C2.15385 21.4754 2.60156 21.9231 3.15385 21.9231H15C15.5523 21.9231 16 21.4754 16 20.9231V9.07694ZM2 6.9231C1.44772 6.9231 1 7.37081 1 7.9231V22.0769C1 22.6292 1.44772 23.0769 2 23.0769H16.1538C16.7061 23.0769 17.1538 22.6292 17.1538 22.0769V7.9231C17.1538 7.37081 16.7061 6.9231 16.1538 6.9231H2Z" fill="#80A0BD"/>
<path fill-rule="evenodd" clip-rule="evenodd" d="M22.9229 2.15385C22.9229 1.60156 22.4751 1.15385 21.9229 1.15385H10.0767C9.52441 1.15385 9.0767 1.60156 9.0767 2.15385V14C9.0767 14.5523 9.52441 15 10.0767 15H21.9229C22.4751 15 22.9229 14.5523 22.9229 14V2.15385ZM8.92285 0C8.37057 0 7.92285 0.447716 7.92285 1V15.1538C7.92285 15.7061 8.37057 16.1538 8.92285 16.1538H23.0767C23.629 16.1538 24.0767 15.7061 24.0767 15.1538V1C24.0767 0.447715 23.629 0 23.0767 0H8.92285Z" fill="#80A0BD"/>
<path fill-rule="evenodd" clip-rule="evenodd" d="M8.49997 0.576953C8.72527 0.802255 8.72527 1.16754 8.49997 1.39285L2.39278 7.50003C2.16748 7.72533 1.80219 7.72533 1.57689 7.50003C1.35159 7.27473 1.35159 6.90944 1.57689 6.68414L7.68408 0.576953C7.90938 0.35165 8.27467 0.35165 8.49997 0.576953ZM22.923 1.15388C23.1483 1.37918 23.1483 1.74447 22.923 1.96977L17.3928 7.50003C17.1675 7.72533 16.8022 7.72533 16.5769 7.50003C16.3516 7.27473 16.3516 6.90944 16.5769 6.68414L22.1072 1.15388C22.3325 0.928573 22.6977 0.928573 22.923 1.15388ZM9.07689 15C9.30219 15.2253 9.30219 15.5906 9.07689 15.8159L2.96971 21.9231C2.7444 22.1484 2.37912 22.1484 2.15381 21.9231C1.92851 21.6978 1.92851 21.3325 2.15381 21.1072L8.261 15C8.4863 14.7747 8.85159 14.7747 9.07689 15ZM23.5 15.577C23.7253 15.8023 23.7253 16.1675 23.5 16.3928L17.3928 22.5C17.1675 22.7253 16.8022 22.7253 16.5769 22.5C16.3516 22.2747 16.3516 21.9094 16.5769 21.6841L22.6841 15.577C22.9094 15.3517 23.2747 15.3517 23.5 15.577Z" fill="#80A0BD"/>
<rect x="1" y="22" width="1" height="8" rx="0.5" fill="#002445"/>
<rect x="16" y="22" width="1" height="8" rx="0.5" fill="#002445"/>
<rect x="1" y="20.7692" width="16.1538" height="2.30769" rx="1" fill="#E10000"/>
<rect y="28" width="18" height="1" rx="0.5" fill="#002445"/>
</svg>
