<svg width="27" height="24" viewBox="0 0 27 24" fill="none" xmlns="http://www.w3.org/2000/svg">
<path fill-rule="evenodd" clip-rule="evenodd" d="M15 9.07694C15 8.52466 14.5523 8.07694 14 8.07694H2.15385C1.60156 8.07694 1.15385 8.52466 1.15385 9.07694V20.9231C1.15385 21.4754 1.60156 21.9231 2.15385 21.9231H14C14.5523 21.9231 15 21.4754 15 20.9231V9.07694ZM1 6.9231C0.447715 6.9231 0 7.37081 0 7.9231V22.0769C0 22.6292 0.447716 23.0769 1 23.0769H15.1538C15.7061 23.0769 16.1538 22.6292 16.1538 22.0769V7.9231C16.1538 7.37081 15.7061 6.9231 15.1538 6.9231H1Z" fill="#80A0BD"/>
<path fill-rule="evenodd" clip-rule="evenodd" d="M21.9229 2.15385C21.9229 1.60156 21.4751 1.15385 20.9229 1.15385H9.0767C8.52441 1.15385 8.0767 1.60156 8.0767 2.15385V14C8.0767 14.5523 8.52441 15 9.0767 15H20.9229C21.4751 15 21.9229 14.5523 21.9229 14V2.15385ZM7.92285 0C7.37057 0 6.92285 0.447716 6.92285 1V15.1538C6.92285 15.7061 7.37057 16.1538 7.92285 16.1538H22.0767C22.629 16.1538 23.0767 15.7061 23.0767 15.1538V1C23.0767 0.447715 22.629 0 22.0767 0H7.92285Z" fill="#80A0BD"/>
<path fill-rule="evenodd" clip-rule="evenodd" d="M7.49997 0.576953C7.72527 0.802255 7.72527 1.16754 7.49997 1.39285L1.39278 7.50003C1.16748 7.72533 0.802194 7.72533 0.576892 7.50003C0.351589 7.27473 0.351589 6.90944 0.576892 6.68414L6.68408 0.576953C6.90938 0.35165 7.27467 0.35165 7.49997 0.576953ZM21.923 1.15388C22.1483 1.37918 22.1483 1.74447 21.923 1.96977L16.3928 7.50003C16.1675 7.72533 15.8022 7.72533 15.5769 7.50003C15.3516 7.27473 15.3516 6.90944 15.5769 6.68414L21.1072 1.15388C21.3325 0.928573 21.6977 0.928573 21.923 1.15388ZM8.07689 15C8.30219 15.2253 8.30219 15.5906 8.07689 15.8159L1.96971 21.9231C1.7444 22.1484 1.37912 22.1484 1.15381 21.9231C0.928512 21.6978 0.928512 21.3325 1.15381 21.1072L7.261 15C7.4863 14.7747 7.85159 14.7747 8.07689 15ZM22.5 15.577C22.7253 15.8023 22.7253 16.1675 22.5 16.3928L16.3928 22.5C16.1675 22.7253 15.8022 22.7253 15.5769 22.5C15.3516 22.2747 15.3516 21.9094 15.5769 21.6841L21.6841 15.577C21.9094 15.3517 22.2747 15.3517 22.5 15.577Z" fill="#80A0BD"/>
<rect x="15.6597" y="23.0524" width="0.994382" height="10.346" rx="0.497191" transform="rotate(-90.3214 15.6597 23.0524)" fill="#002445"/>
<rect x="15.5791" y="8.05292" width="1" height="10.4733" rx="0.5" transform="rotate(-90.3214 15.5791 8.05292)" fill="#002445"/>
<rect x="15" y="7" width="2" height="16" rx="1" fill="#E10000"/>
<rect x="24" y="6" width="1" height="18" rx="0.5" fill="#002445"/>
</svg>
