<svg width="22" height="8" viewBox="0 0 22 8" fill="none" xmlns="http://www.w3.org/2000/svg">
<path fill-rule="evenodd" clip-rule="evenodd" d="M0 3.77398C0 3.2529 0.447715 2.83048 1 2.83048L21 2.83048C21.5523 2.83048 22 3.2529 22 3.77398C22 4.29506 21.5523 4.71748 21 4.71748L1 4.71748C0.447715 4.71748 0 4.29506 0 3.77398Z" fill="#F4001B"/>
<path fill-rule="evenodd" clip-rule="evenodd" d="M21.7071 3.10683C22.0976 3.47529 22.0976 4.07268 21.7071 4.44113L18.7071 7.27163C18.3166 7.64009 17.6834 7.64009 17.2929 7.27163C16.9024 6.90317 16.9024 6.30578 17.2929 5.93732L19.5858 3.77398L17.2929 1.61064C16.9024 1.24218 16.9024 0.644791 17.2929 0.276332C17.6834 -0.0921268 18.3166 -0.0921273 18.7071 0.276332L21.7071 3.10683Z" fill="#F4001B"/>
</svg>
