<svg width="24" height="18" viewBox="0 0 24 18" fill="none" xmlns="http://www.w3.org/2000/svg">
<path d="M20.5755 1H3.42449C2.70612 1 2.07755 1.37509 1.62857 1.84395C1.26939 2.31281 1 2.87545 1 3.53185V14.8783C1 16.2849 2.07755 17.4102 3.42449 17.4102H20.5755C21.9224 17.4102 23 16.2849 23 14.8783V3.53185C23 2.12527 21.9224 1 20.5755 1ZM20.5755 2.40658C20.6653 2.40658 20.7551 2.40658 20.8449 2.50036L12.4041 9.8146C12.1347 10.0021 11.8653 10.0021 11.5959 9.8146L3.33469 2.40658H3.42449H20.5755ZM20.5755 16.0036H3.42449C2.79592 16.0036 2.34694 15.5347 2.34694 14.8783V3.53185V3.43808L10.698 10.8461C11.0571 11.1274 11.5061 11.315 11.9551 11.315C12.4041 11.315 12.8531 11.1274 13.2122 10.8461L21.6531 3.53185V14.8783C21.6531 15.5347 21.2041 16.0036 20.5755 16.0036Z" fill="#F4001B" stroke="#F4001B"/>
</svg>
