<svg width="19" height="22" viewBox="0 0 19 22" fill="none" xmlns="http://www.w3.org/2000/svg">
<path d="M18.2514 5.53224L18.3392 5.28678C18.482 4.77899 17.8597 3.32137 16.8595 2.45085C16.8595 2.45085 16.8595 2.45085 16.7881 2.37831C16.7166 2.30577 16.5737 2.23323 16.5023 2.16068C15.8594 1.65288 15.0735 1.07254 13.4304 1C13.359 1 13.2875 1 13.2161 1C12.5017 1 10.6443 1.87051 5.64355 7.89155L5.57211 7.9641C5.57211 8.03664 5.42923 8.18172 5.28635 8.39935L5.21491 8.54444C4.07189 10.1404 1.50007 13.8401 1 16.4516V16.5241V16.6692C1.28576 19.3533 2.92886 21.0943 5.71499 21.457H5.98795L6.21506 21.3845C7.35809 20.0787 8.21536 18.5553 8.85831 16.8143L8.90938 16.6582C8.90938 16.6582 8.9373 16.4449 8.93332 16.379C8.92933 16.3132 8.88792 16.1165 8.74185 15.9701C8.59578 15.8238 7.85816 15.0733 7.28665 14.7106L6.92945 14.4929L12.0731 7.81901L12.3588 8.18172C12.8589 8.83461 13.4304 9.19732 14.1448 9.34241H14.3591L14.5735 9.26986C16.0022 8.25427 17.3227 6.98309 18.2514 5.53224ZM14.2163 7.89155L14.0734 8.03664L13.8591 7.9641C13.0732 7.52884 12.6276 6.49854 12.6276 6.49854L12.1648 5.69101L4.92916 15.1458L5.85787 15.3634C6.21506 15.4717 6.71514 15.5085 7.50097 16.379C7.50097 16.379 7.54916 16.4248 7.57241 16.5294C7.59565 16.634 7.57241 16.7418 7.57241 16.7418C7.07233 17.975 6.50082 19.1357 5.71499 20.1513L5.56501 20.2238H5.35779C3.42893 19.7885 2.35734 18.5553 2.21447 16.5967V16.5241V16.4516C2.71454 14.0577 5.21491 10.5031 6.14362 9.12478C6.35794 8.83461 6.50082 8.61698 6.57226 8.54444C11.0015 3.17628 12.716 2.30577 13.1447 2.16068H13.2161H13.2875C14.6449 2.23323 15.2164 2.66848 15.7879 3.10374C15.9185 3.20318 16.0218 3.30222 16.1451 3.39391C16.7166 3.97425 17.0024 4.55459 17.1453 4.84476V5.02218L17.0738 5.20748C16.288 6.22307 15.3593 7.16613 14.2163 7.89155Z" fill="#002C57" stroke="#F4001B"/>
</svg>
