<svg width="20" height="20" viewBox="0 0 20 20" fill="none" xmlns="http://www.w3.org/2000/svg">
<path fill-rule="evenodd" clip-rule="evenodd" d="M10 0C4.47715 0 0 4.47715 0 10C0 15.5228 4.47715 20 10 20C15.5228 20 20 15.5228 20 10C20 4.47715 15.5228 0 10 0ZM2.17143 10C2.17143 5.6764 5.6764 2.17143 10 2.17143C14.3236 2.17143 17.8286 5.6764 17.8286 10C17.8286 14.3236 14.3236 17.8286 10 17.8286C5.6764 17.8286 2.17143 14.3236 2.17143 10ZM9.66606 3.84C9.09929 3.84 8.63984 4.29945 8.63984 4.86621V10.5021C8.63984 10.7954 8.76326 11.0601 8.95983 11.2467C9.02156 11.3381 9.099 11.4209 9.19109 11.4907L11.8807 13.5277C12.3325 13.8698 12.9762 13.781 13.3183 13.3292C13.6605 12.8773 13.5717 12.2337 13.1198 11.8915L10.6923 10.053V4.86621C10.6923 4.29945 10.2328 3.84 9.66606 3.84Z" fill="#F4001B"/>
</svg>
