<?xml version="1.0" encoding="utf-8"?>
<!-- Generator: Adobe Illustrator 18.1.0, SVG Export Plug-In . SVG Version: 6.00 Build 0)  -->
<svg version="1.1" xmlns="http://www.w3.org/2000/svg" xmlns:xlink="http://www.w3.org/1999/xlink" x="0px" y="0px"
	 viewBox="376.9 -83.7 1031 185.2" enable-background="new 376.9 -83.7 1031 185.2" xml:space="preserve">
<g id="svg4501" xmlns:svg="http://www.w3.org/2000/svg" xmlns:inkscape="http://www.inkscape.org/namespaces/inkscape" xmlns:sodipodi="http://sodipodi.sourceforge.net/DTD/sodipodi-0.dtd" xmlns:cc="http://creativecommons.org/ns#" xmlns:rdf="http://www.w3.org/1999/02/22-rdf-syntax-ns#" xmlns:dc="http://purl.org/dc/elements/1.1/" xmlns:osb="http://www.openswatchbook.org/uri/2009/osb" sodipodi:docname="Р›РѕРіРѕС‚РёРї РђСЌСЂРѕРєР°СЂРіРѕ+.svg" inkscape:version="0.92.1 r15371">
	
		<sodipodi:namedview  id="namedview4503" showgrid="false" inkscape:zoom="2.3786088" inkscape:cy="611.98911" inkscape:cx="393.83506" objecttolerance="10" pagecolor="#ffffff" gridtolerance="10" borderopacity="1" guidetolerance="10" bordercolor="#666666" inkscape:current-layer="svg4501" inkscape:window-y="-8" inkscape:window-x="-8" inkscape:window-maximized="1" inkscape:window-height="838" inkscape:window-width="1600" inkscape:pageshadow="2" inkscape:pageopacity="0">
		</sodipodi:namedview>
	<g id="Слой_x0020_1" inkscape:label="Layar 2">
		<g id="_1037189520">
			<path id="path4491" inkscape:connector-curvature="0" fill="#0054A0" d="M504.3-8.4C566.7-12,632,8.1,631,48.3
				c1,45.3-64.7,53.6-92,53.2c-35.5,0-68.5-6.6-95.2-17.8c2.4-1.6,3.7-3.2,6.2-4.8c28.1,14.3,61.8,18.3,97,16.5
				c37.7-1.3,57.3-24.8,49.3-48.7C586.8,21.2,547.4,4.8,504.3-8.4z"/>
			<path id="path4493" inkscape:connector-curvature="0" fill="#0054A0" d="M538.9-83.7c89.2,0,162,41.6,162,92.6
				c0,32.1-28.9,60.5-72.5,77.1l5.1-145.3l-187,144.1c-42-16.8-69.6-44.6-69.6-75.9C376.9-42.1,449.7-83.7,538.9-83.7z"/>
			<path id="path4495" inkscape:connector-curvature="0" fill="#FFFFFF" d="M562.6-4.7L547.4,7.1c-13.1-5.7-27.9-10.8-43.1-15.4
				C524.2-9.5,544.4-8.3,562.6-4.7z"/>
			<path id="path4497" inkscape:connector-curvature="0" fill="#FFFFFF" d="M418.5-22.9c-15.6-1-18.8-11.9,1.6-10.7
				c26.7,1.4,53.3,2.8,80,4.2c1.5,0.1,3-0.1,4.6-1.2c4.1-3.6,8.2-7.1,12.2-10.7c1-0.9,1.4-0.9,2.3-0.9c2.6,0.1,5.3,0.1,7.9,0.1
				c-4.1,5.8-8.3,11.7-12.5,17.5c-1,1.5-1.8,3.1-2.2,4.8c-0.4,1.3-1.2,2.2-3,2.1c-10.8-0.5-21.6-1-32.4-1.4c3.6,3.5,8,6.9,12.4,10.4
				c-4.4-0.2-8.8-0.5-13.1-0.7c-6.6-3.5-13.2-7-19.8-10.4c-1.2-0.5-3-0.8-5.2-0.8C440.3-21.4,429.4-22.1,418.5-22.9z"/>
		</g>
	</g>
	<g id="layer3" inkscape:label="Layer 1" inkscape:groupmode="layer" display="none">
		
			<path id="path5053" sodipodi:start="1.9604534" sodipodi:open="true" sodipodi:end="1.9564443" sodipodi:ry="3368.7168" sodipodi:rx="5711.8525" sodipodi:type="arc" sodipodi:cx="10307.033" sodipodi:cy="13398.664" display="inline" fill="#FFFFFF" d="
			M477.1,97.2c-82.6-20-121.9-75.7-87.9-124.5s128.6-72.1,211.2-52.2C683-59.6,722.6-3.9,688.7,44.9s-128.3,72.3-211,52.5"/>
	</g>
	<g id="g5068" inkscape:label="РљРѕРїРёСЏ СЃР»РѕСЏ Layer 1" inkscape:groupmode="layer" display="none">
		
			<path id="path5066" sodipodi:start="1.9604534" sodipodi:open="true" sodipodi:end="1.9564443" sodipodi:ry="3368.7168" sodipodi:rx="5711.8525" sodipodi:type="arc" sodipodi:cx="10307.033" sodipodi:cy="13398.664" display="inline" fill="#FFFFFF" d="
			M477.1,97.2c-82.6-20-121.9-75.7-87.9-124.5s128.6-72.1,211.2-52.2C683-59.6,722.6-3.9,688.7,44.9s-128.3,72.3-211,52.5"/>
	</g>
</g>
<g id="Слой_1">
	
		<image display="none" overflow="visible" width="343" height="62" xlink:href="logo4.png"  transform="matrix(3.0093 0 0 3.0093 376.0414 -88.4506)">
	</image>
	<g>
		<g>
			<path fill="#0054A0" d="M711.4,26.1h15.1l13.7-22.8h34.2l6.4,22.8h14.5l-27.4-91.8L711.4,26.1z M763.4-35.4l7.4,26.2h-23.2
				L763.4-35.4z"/>
			<path fill="#0054A0" d="M840.7-62.3c-9.1,0-17.5,2.2-25.1,6.5l-0.8,0.5l-2.6,16.8l3.9-2.8c7.3-5.3,15-7.9,23.1-7.9
				c7.3,0,12.9,2.2,17,6.7c3.8,4.1,5.7,9.7,5.9,16.7h-37.7l-1.9,12.5h38.2c-2,8.3-5.8,15.1-11.5,20.4c-6,5.6-12.9,8.4-20.6,8.4
				c-7.4,0-14.4-2.6-20.6-7.8l-2.7-2.3l-2.5,16.1l1.1,0.7c6.8,4.2,14.7,6.4,23.3,6.4c12.4,0,23.3-4.3,32.3-12.9
				c8.8-8.3,14.3-19.2,16.4-32.3c0.5-3.4,0.8-6.6,0.8-9.7c0-11.1-3.3-20-9.7-26.4C860.4-59.1,851.6-62.3,840.7-62.3z"/>
			<path fill="#0054A0" d="M937.1-54.3c-4.4-3.7-10.7-5.6-18.8-5.6h-24.7l-13.7,86h14l5.7-35.4h11.9c8.9,0,16.3-2.3,22-7
				c5.4-4.4,8.7-10.3,9.8-17.6c0.3-1.8,0.4-3.5,0.4-5.1C943.7-45.5,941.5-50.7,937.1-54.3z M916.1-47.3c11.9,0,13.3,5.4,13.3,9.4
				c0,0.9-0.1,2-0.2,3.1c-1.4,8.8-7.3,13.1-18.1,13.1h-9.6l4.1-25.6H916.1z"/>
			<path fill="#0054A0" d="M1027.1-51.9c-7.3-6.9-16.9-10.4-28.4-10.4c-12.8,0-24.3,4.2-34.2,12.6c-10.1,8.5-16.3,19.5-18.4,32.6
				c-0.4,2.7-0.6,5.3-0.6,7.9c0,11.2,3.7,20.4,11.1,27.4c7.3,7,16.9,10.5,28.4,10.5c12.8,0,24.3-4.2,34.3-12.6
				c10.2-8.5,16.4-19.5,18.5-32.6c0.4-2.7,0.6-5.3,0.6-7.9C1038.3-35.7,1034.5-44.9,1027.1-51.9z M1010.4,6.3
				c-7,6.1-15.1,9.2-24,9.2c-7.9,0-14.2-2.4-19-7.2s-7.2-11.1-7.2-19c0-1.9,0.2-3.9,0.5-6c1.5-9.5,5.8-17.5,12.7-23.6
				c6.9-6.1,15-9.2,23.9-9.2c8,0,14.2,2.3,19.1,7.2c4.9,4.8,7.2,11,7.2,18.9c0,2-0.2,4-0.5,6C1021.6-7.7,1017.4,0.2,1010.4,6.3z"/>
			<polygon fill="#0054A0" points="1121,-59.9 1102.6,-59.9 1064,-25.6 1069.5,-59.9 1055.5,-59.9 1041.8,26.1 1055.8,26.1 
				1061.9,-12.9 1089.9,26.1 1107.6,26.1 1073.7,-18.7 			"/>
			<path fill="#0054A0" d="M1112.9,26.1h15.1l13.7-22.8h34.2l6.4,22.8h14.5l-27.4-91.8L1112.9,26.1z M1164.9-35.4l7.4,26.2h-23.2
				L1164.9-35.4z"/>
			<path fill="#0054A0" d="M1257.4-54.3c-4.4-3.7-10.7-5.6-18.8-5.6h-24.7l-13.7,86h14l5.7-35.4h11.9c8.9,0,16.3-2.3,22-7
				c5.4-4.4,8.7-10.3,9.8-17.6c0.3-1.8,0.4-3.5,0.4-5.1C1264-45.5,1261.8-50.7,1257.4-54.3z M1236.4-47.3c11.9,0,13.3,5.4,13.3,9.4
				c0,0.9-0.1,2-0.2,3.1c-1.4,8.8-7.3,13.1-18.1,13.1h-9.6l4.1-25.6H1236.4z"/>
			<polygon fill="#0054A0" points="1320.4,-59.9 1277.6,-59.9 1263.9,26.1 1278,26.1 1289.5,-47 1318.3,-47 			"/>
			<path fill="#0054A0" d="M1396.7-51.9c-7.3-6.9-16.9-10.4-28.4-10.4c-12.8,0-24.3,4.2-34.2,12.6c-10.1,8.5-16.3,19.5-18.4,32.6
				c-0.4,2.7-0.6,5.3-0.6,7.9c0,11.2,3.7,20.4,11.1,27.4c7.3,7,16.9,10.5,28.4,10.5c12.8,0,24.3-4.2,34.3-12.6
				c10.2-8.5,16.4-19.5,18.5-32.6c0.4-2.7,0.6-5.3,0.6-7.9C1407.9-35.7,1404.1-44.9,1396.7-51.9z M1380,6.3c-7,6.1-15.1,9.2-24,9.2
				c-7.9,0-14.2-2.4-19-7.2s-7.2-11.1-7.2-19c0-1.9,0.2-3.9,0.5-6c1.5-9.5,5.8-17.5,12.7-23.6c6.9-6.1,15-9.2,23.9-9.2
				c8,0,14.2,2.3,19.1,7.2c4.9,4.8,7.2,11,7.2,18.9c0,2-0.2,4-0.5,6C1391.3-7.7,1387,0.2,1380,6.3z"/>
		</g>
		<g>
			<path fill="#0054A0" d="M711.4,26.1h15.1l13.7-22.8h34.2l6.4,22.8h14.5l-27.4-91.8L711.4,26.1z M763.4-35.4l7.4,26.2h-23.2
				L763.4-35.4z"/>
			<path fill="#0054A0" d="M840.7-62.3c-9.1,0-17.5,2.2-25.1,6.5l-0.8,0.5l-2.6,16.8l3.9-2.8c7.3-5.3,15-7.9,23.1-7.9
				c7.3,0,12.9,2.2,17,6.7c3.8,4.1,5.7,9.7,5.9,16.7h-37.7l-1.9,12.5h38.2c-2,8.3-5.8,15.1-11.5,20.4c-6,5.6-12.9,8.4-20.6,8.4
				c-7.4,0-14.4-2.6-20.6-7.8l-2.7-2.3l-2.5,16.1l1.1,0.7c6.8,4.2,14.7,6.4,23.3,6.4c12.4,0,23.3-4.3,32.3-12.9
				c8.8-8.3,14.3-19.2,16.4-32.3c0.5-3.4,0.8-6.6,0.8-9.7c0-11.1-3.3-20-9.7-26.4C860.4-59.1,851.6-62.3,840.7-62.3z"/>
			<path fill="#0054A0" d="M937.1-54.3c-4.4-3.7-10.7-5.6-18.8-5.6h-24.7l-13.7,86h14l5.7-35.4h11.9c8.9,0,16.3-2.3,22-7
				c5.4-4.4,8.7-10.3,9.8-17.6c0.3-1.8,0.4-3.5,0.4-5.1C943.7-45.5,941.5-50.7,937.1-54.3z M916.1-47.3c11.9,0,13.3,5.4,13.3,9.4
				c0,0.9-0.1,2-0.2,3.1c-1.4,8.8-7.3,13.1-18.1,13.1h-9.6l4.1-25.6H916.1z"/>
			<path fill="#0054A0" d="M1027.1-51.9c-7.3-6.9-16.9-10.4-28.4-10.4c-12.8,0-24.3,4.2-34.2,12.6c-10.1,8.5-16.3,19.5-18.4,32.6
				c-0.4,2.7-0.6,5.3-0.6,7.9c0,11.2,3.7,20.4,11.1,27.4c7.3,7,16.9,10.5,28.4,10.5c12.8,0,24.3-4.2,34.3-12.6
				c10.2-8.5,16.4-19.5,18.5-32.6c0.4-2.7,0.6-5.3,0.6-7.9C1038.3-35.7,1034.5-44.9,1027.1-51.9z M1010.4,6.3
				c-7,6.1-15.1,9.2-24,9.2c-7.9,0-14.2-2.4-19-7.2s-7.2-11.1-7.2-19c0-1.9,0.2-3.9,0.5-6c1.5-9.5,5.8-17.5,12.7-23.6
				c6.9-6.1,15-9.2,23.9-9.2c8,0,14.2,2.3,19.1,7.2c4.9,4.8,7.2,11,7.2,18.9c0,2-0.2,4-0.5,6C1021.6-7.7,1017.4,0.2,1010.4,6.3z"/>
			<polygon fill="#0054A0" points="1121,-59.9 1102.6,-59.9 1064,-25.6 1069.5,-59.9 1055.5,-59.9 1041.8,26.1 1055.8,26.1 
				1061.9,-12.9 1089.9,26.1 1107.6,26.1 1073.7,-18.7 			"/>
			<path fill="#0054A0" d="M1112.9,26.1h15.1l13.7-22.8h34.2l6.4,22.8h14.5l-27.4-91.8L1112.9,26.1z M1164.9-35.4l7.4,26.2h-23.2
				L1164.9-35.4z"/>
			<path fill="#0054A0" d="M1257.4-54.3c-4.4-3.7-10.7-5.6-18.8-5.6h-24.7l-13.7,86h14l5.7-35.4h11.9c8.9,0,16.3-2.3,22-7
				c5.4-4.4,8.7-10.3,9.8-17.6c0.3-1.8,0.4-3.5,0.4-5.1C1264-45.5,1261.8-50.7,1257.4-54.3z M1236.4-47.3c11.9,0,13.3,5.4,13.3,9.4
				c0,0.9-0.1,2-0.2,3.1c-1.4,8.8-7.3,13.1-18.1,13.1h-9.6l4.1-25.6H1236.4z"/>
			<polygon fill="#0054A0" points="1320.4,-59.9 1277.6,-59.9 1263.9,26.1 1278,26.1 1289.5,-47 1318.3,-47 			"/>
			<path fill="#0054A0" d="M1396.7-51.9c-7.3-6.9-16.9-10.4-28.4-10.4c-12.8,0-24.3,4.2-34.2,12.6c-10.1,8.5-16.3,19.5-18.4,32.6
				c-0.4,2.7-0.6,5.3-0.6,7.9c0,11.2,3.7,20.4,11.1,27.4c7.3,7,16.9,10.5,28.4,10.5c12.8,0,24.3-4.2,34.3-12.6
				c10.2-8.5,16.4-19.5,18.5-32.6c0.4-2.7,0.6-5.3,0.6-7.9C1407.9-35.7,1404.1-44.9,1396.7-51.9z M1380,6.3c-7,6.1-15.1,9.2-24,9.2
				c-7.9,0-14.2-2.4-19-7.2s-7.2-11.1-7.2-19c0-1.9,0.2-3.9,0.5-6c1.5-9.5,5.8-17.5,12.7-23.6c6.9-6.1,15-9.2,23.9-9.2
				c8,0,14.2,2.3,19.1,7.2c4.9,4.8,7.2,11,7.2,18.9c0,2-0.2,4-0.5,6C1391.3-7.7,1387,0.2,1380,6.3z"/>
		</g>
	</g>
	<g>
		<g>
			<path fill="#0054A0" d="M723.4,52.5h-11.1c-1,0-1.9,0.5-2.5,1.4c-0.5,0.7-0.7,1.5-0.7,2.3v28.2c0,0.9,0.3,1.7,1,2.4
				c0.7,0.7,1.5,1.1,2.5,1.1c2.2,0,3.5-1.4,3.5-3.6V58.9h7.4c2.1,0,3.4-1.2,3.4-3.2S725.5,52.5,723.4,52.5z"/>
			<path fill="#0054A0" d="M742.7,52.5h-8c-2.1,0-3.4,1.4-3.4,3.6v28.2c0,0.9,0.3,1.7,1,2.4c0.7,0.7,1.5,1.1,2.5,1.1
				c2.2,0,3.5-1.3,3.5-3.4v-8.8h5c3.2,0,5.9-1.2,8.1-3.5c2.2-2.3,3.3-5,3.3-8.2c0-3.4-1.1-6.3-3.4-8.4
				C749,53.5,746.1,52.5,742.7,52.5z M747.6,63.9c0,1.6-0.5,2.8-1.5,3.8c-1,1-2.3,1.4-3.9,1.4h-4.2V58.9h4.3c1.6,0,2.8,0.4,3.8,1.3
				C747.2,61.2,747.6,62.4,747.6,63.9z"/>
			<path fill="#0054A0" d="M779.5,52.2c-1.5,0-2.6,0.8-3.2,2.2L770,68.6l-7.3-14.4c-0.7-1.3-1.8-2-3.2-2c-0.9,0-1.7,0.3-2.3,1
				c-0.6,0.6-0.9,1.4-0.9,2.2c0,0.5,0.2,1.1,0.6,1.9l9.7,19l-2.7,6c-0.5,1-0.7,1.7-0.7,2.3c0,0.9,0.3,1.7,0.9,2.3
				c0.6,0.6,1.4,0.9,2.3,0.9c1.5,0,2.7-0.8,3.3-2.3l12.8-28.7c0.2-0.5,0.3-1,0.3-1.5C782.8,53.4,781.5,52.2,779.5,52.2z M758.2,54.2
				L758.2,54.2L758.2,54.2L758.2,54.2z"/>
			<path fill="#0054A0" d="M805.1,68.5c1.7-1.6,2.6-3.8,2.6-6.4c0-3.2-1.1-5.7-3.1-7.4c-1.9-1.6-4.4-2.4-7.6-2.4
				c-4,0-7.3,1.2-9.8,3.4c-1.1,1-1.3,2.1-1.3,2.8c0,2.4,1.5,3.3,3,3.3c0.9,0,1.8-0.4,2.5-1.1c0.2-0.2,0.7-0.6,1.6-1.1
				c1.2-0.6,2.6-1,4.1-1c1.3,0,2.3,0.3,2.9,1.1c0.7,0.8,1,1.6,1,2.5c0,0.9-0.3,1.7-1.1,2.5c-0.5,0.6-1.3,0.9-2.4,1l-3.5,0.2l-0.1,0
				c-1.8,0.3-2.8,1.4-2.8,3.1c0,1.3,0.7,2.4,1.8,2.8c0.6,0.3,1.5,0.4,2.7,0.4h1.3c2,0,3,0.4,3.4,0.7c1,0.7,1.4,2.2,1.4,4.4
				c0,1.2-0.4,2.2-1.3,2.9c-0.9,0.8-2,1.2-3.4,1.2c-1.5,0-2.7-0.2-3.7-0.6c-0.9-0.3-2-1-3.2-2c-0.7-0.6-1.5-0.8-2.4-0.8
				c-1.4,0-3,0.9-3,3.3c0,0.9,0.3,1.7,1,2.5c1.2,1.4,3,2.5,5.4,3.2c2,0.6,3.9,0.9,5.9,0.9c3.5,0,6.4-1,8.5-2.9
				c2.2-2,3.3-4.7,3.3-8.3C808.7,72.3,807,69.9,805.1,68.5z"/>
			<path fill="#0054A0" d="M828.6,52.2c-4.8,0-8.8,1.9-11.7,5.6c-2.6,3.3-3.9,7.5-3.9,12.3c0,4.7,1.4,8.8,4,12.2
				c2.9,3.7,6.8,5.6,11.6,5.6c4.8,0,8.7-1.9,11.6-5.6c2.6-3.3,4-7.4,4-12.2c0-4.8-1.3-9-3.9-12.3C837.4,54.1,833.4,52.2,828.6,52.2z
				 M828.6,81.3c-2.8,0-4.9-1.1-6.3-3.4c-1.3-2.1-2-4.8-2-7.9c0-3.2,0.7-5.9,2-7.9c1.5-2.2,3.6-3.3,6.4-3.3c2.9,0,4.9,1.1,6.4,3.3
				c1.3,2,2,4.7,2,7.9c0,1.7-0.2,3.2-0.5,4.4c-0.5,2.1-1.5,3.8-2.8,5C832.2,80.7,830.6,81.3,828.6,81.3z"/>
			<path fill="#0054A0" d="M872.7,52.5h-20c-1,0-1.9,0.5-2.5,1.4c-0.5,0.7-0.7,1.5-0.7,2.3v28.2c0,0.9,0.3,1.7,1,2.4
				c0.7,0.7,1.5,1.1,2.5,1.1c2.2,0,3.5-1.4,3.5-3.6V58.9h12.5v25.3c0,1,0.3,1.8,1,2.5c0.7,0.7,1.5,1.1,2.5,1.1c1,0,1.8-0.4,2.5-1.1
				c0.6-0.7,0.9-1.5,0.9-2.4V56.2C875.9,53.4,874.2,52.5,872.7,52.5z"/>
			<path fill="#0054A0" d="M897.8,59.2c2,0,3.3-1.3,3.3-3.3c0-2.1-1.2-3.3-3.2-3.3h-12.1c-1,0-1.9,0.5-2.5,1.4
				c-0.5,0.7-0.7,1.5-0.7,2.3V84c0,2.2,1.3,3.6,3.4,3.6h11.6c2.1,0,3.4-1.2,3.4-3.3c0-2.5-1.6-3.4-3.2-3.4h-8.4v-8.6h7.7
				c2.1,0,3.4-1.2,3.4-3.2s-1.3-3.2-3.3-3.2h-7.8v-6.7H897.8z"/>
			<path fill="#0054A0" d="M918.4,52.5h-8c-2.1,0-3.4,1.4-3.4,3.6v28.2c0,0.9,0.3,1.7,1,2.4c0.7,0.7,1.5,1.1,2.5,1.1
				c2.2,0,3.5-1.3,3.5-3.4v-8.8h5c3.2,0,5.9-1.2,8.1-3.5c2.2-2.3,3.3-5,3.3-8.2c0-3.4-1.1-6.3-3.4-8.4
				C924.6,53.5,921.8,52.5,918.4,52.5z M923.3,63.9c0,1.6-0.5,2.8-1.5,3.8c-1,1-2.3,1.4-3.9,1.4h-4.2V58.9h4.3
				c1.6,0,2.8,0.4,3.8,1.3C922.9,61.2,923.3,62.4,923.3,63.9z"/>
			<path fill="#0054A0" d="M950,59.2c2,0,3.3-1.3,3.3-3.3c0-2.1-1.2-3.3-3.2-3.3H938c-1,0-1.9,0.5-2.5,1.4c-0.5,0.7-0.7,1.5-0.7,2.3
				V84c0,2.2,1.3,3.6,3.4,3.6h11.6c2.1,0,3.4-1.2,3.4-3.3c0-2.5-1.6-3.4-3.2-3.4h-8.4v-8.6h7.7c2.1,0,3.4-1.2,3.4-3.2
				s-1.3-3.2-3.3-3.2h-7.8v-6.7H950z"/>
			<path fill="#0054A0" d="M977.4,68.3c0.5-0.5,0.9-1.1,1.3-1.7c0.9-1.5,1.3-3.2,1.3-5.1c0-2.7-1.1-4.9-3.2-6.7
				c-1.9-1.6-4.2-2.4-6.9-2.4h-7.2c-2.2,0-3.5,1.4-3.5,3.6V84c0,2.2,1.4,3.6,3.7,3.6h7.9c3.1,0,5.8-1,8-2.9c2.4-2.1,3.6-4.7,3.6-7.9
				c0-2.5-0.8-4.6-2.3-6.3C979.4,69.6,978.4,68.9,977.4,68.3z M970.4,72.3c1.6,0,2.8,0.4,3.8,1.2c0.9,0.7,1.3,1.8,1.3,3.3
				c0,1.5-0.5,2.5-1.5,3.3c-1,0.7-2.4,1.1-4.1,1.1h-3.8v-8.8H970.4z M969.2,66h-3.1v-7.1h3.6c1,0,1.8,0.3,2.4,1
				c0.6,0.7,0.9,1.5,0.9,2.5c0,1.1-0.3,1.9-1,2.6C971.3,65.7,970.4,66,969.2,66z"/>
			<path fill="#0054A0" d="M1002,52.2c-4.8,0-8.8,1.9-11.7,5.6c-2.6,3.3-3.9,7.5-3.9,12.3c0,4.7,1.4,8.8,4,12.2
				c2.9,3.7,6.8,5.6,11.6,5.6c4.8,0,8.7-1.9,11.6-5.6c2.6-3.3,4-7.4,4-12.2c0-4.8-1.3-9-3.9-12.3C1010.8,54.1,1006.9,52.2,1002,52.2
				z M1002,81.3c-2.8,0-4.9-1.1-6.3-3.4c-1.3-2.1-2-4.8-2-7.9c0-3.2,0.7-5.9,2-7.9c1.5-2.2,3.6-3.3,6.4-3.3c2.9,0,4.9,1.1,6.4,3.3
				c1.3,2,2,4.7,2,7.9c0,1.7-0.2,3.2-0.5,4.4c-0.5,2.1-1.5,3.8-2.8,5C1005.7,80.7,1004,81.3,1002,81.3z"/>
			<path fill="#0054A0" d="M1042.1,68.5c1.7-1.6,2.6-3.8,2.6-6.4c0-3.2-1.1-5.7-3.1-7.4c-1.9-1.6-4.4-2.4-7.6-2.4
				c-4,0-7.3,1.2-9.8,3.4c-1.1,1-1.3,2.1-1.3,2.8c0,2.4,1.5,3.3,3,3.3c0.9,0,1.8-0.4,2.5-1.1c0.2-0.2,0.7-0.6,1.6-1.1
				c1.2-0.6,2.6-1,4.1-1c1.3,0,2.3,0.3,2.9,1.1c0.7,0.8,1,1.6,1,2.5c0,0.9-0.3,1.7-1.1,2.5c-0.5,0.6-1.3,0.9-2.4,1l-3.5,0.2l-0.1,0
				c-1.8,0.3-2.8,1.4-2.8,3.1c0,1.3,0.7,2.4,1.8,2.8c0.6,0.3,1.5,0.4,2.7,0.4h1.3c2,0,3,0.4,3.4,0.7c1,0.7,1.4,2.2,1.4,4.4
				c0,1.2-0.4,2.2-1.3,2.9c-0.9,0.8-2,1.2-3.4,1.2c-1.5,0-2.7-0.2-3.7-0.6c-0.9-0.3-2-1-3.2-2c-0.7-0.6-1.5-0.8-2.4-0.8
				c-1.4,0-3,0.9-3,3.3c0,0.9,0.3,1.7,1,2.5c1.2,1.4,3,2.5,5.4,3.2c2,0.6,3.9,0.9,5.9,0.9c3.5,0,6.4-1,8.5-2.9
				c2.2-2,3.3-4.7,3.3-8.3C1045.7,72.3,1044,69.9,1042.1,68.5z"/>
			<path fill="#0054A0" d="M1062.5,69.1l12-10.8c0.9-0.7,1.4-1.7,1.4-2.8c0-0.8-0.3-1.6-0.8-2.3c-0.6-0.7-1.4-1.1-2.4-1.1
				c-1,0-1.9,0.4-2.8,1.2l-11.7,10.7v-8.4c0-2.2-1.3-3.5-3.5-3.5c-1,0-1.9,0.4-2.5,1.1c-0.6,0.7-0.9,1.5-0.9,2.5v28.6
				c0,0.9,0.3,1.7,1,2.4c0.7,0.7,1.5,1.1,2.5,1.1c2.2,0,3.5-1.4,3.5-3.5V74.3l12.4,12.2c0.9,0.9,2,1.4,3.1,1.4
				c2.5,0,3.4-1.6,3.4-3.2c0-1-0.4-2-1.2-2.7L1062.5,69.1z"/>
			<path fill="#0054A0" d="M1105.3,52.2c-1,0-2.4,0.4-3.7,2.2l-13.9,19.9V55.8c0-0.9-0.3-1.8-0.9-2.5c-0.6-0.8-1.5-1.1-2.5-1.1
				c-2.2,0-3.5,1.4-3.5,3.6v28.5c0,2.6,1.7,3.5,3.2,3.5c1,0,2.4-0.3,3.4-1.9l14.3-20.5v19c0,2.1,1.3,3.4,3.5,3.4
				c2.1,0,3.4-1.4,3.4-3.5V55.6C1108.6,53.5,1107.3,52.2,1105.3,52.2z"/>
			<path fill="#0054A0" d="M1155.5,52.5h-20c-1,0-1.9,0.5-2.5,1.4c-0.5,0.7-0.7,1.5-0.7,2.3v28.2c0,0.9,0.3,1.7,1,2.4
				c0.7,0.7,1.5,1.1,2.5,1.1c2.2,0,3.5-1.4,3.5-3.6V58.9h12.5v25.3c0,1,0.3,1.8,1,2.5c0.7,0.7,1.5,1.1,2.5,1.1c1,0,1.8-0.4,2.5-1.1
				c0.6-0.7,0.9-1.5,0.9-2.4V56.2C1158.7,53.4,1157,52.5,1155.5,52.5z"/>
			<path fill="#0054A0" d="M1179.6,52.2c-4.8,0-8.8,1.9-11.7,5.6c-2.6,3.3-3.9,7.5-3.9,12.3c0,4.7,1.4,8.8,4,12.2
				c2.9,3.7,6.8,5.6,11.6,5.6c4.8,0,8.7-1.9,11.6-5.6c2.6-3.3,4-7.4,4-12.2c0-4.8-1.3-9-3.9-12.3
				C1188.4,54.1,1184.5,52.2,1179.6,52.2z M1179.6,81.3c-2.8,0-4.9-1.1-6.3-3.4c-1.3-2.1-2-4.8-2-7.9c0-3.2,0.7-5.9,2-7.9
				c1.5-2.2,3.6-3.3,6.4-3.3c2.9,0,4.9,1.1,6.4,3.3c1.3,2,2,4.7,2,7.9c0,1.7-0.2,3.2-0.5,4.4c-0.5,2.1-1.5,3.8-2.8,5
				C1183.3,80.7,1181.6,81.3,1179.6,81.3z"/>
			<path fill="#0054A0" d="M1229.1,52.5h-8c-2.1,0-3.4,1.4-3.4,3.6v28.2c0,0.9,0.3,1.7,1,2.4c0.7,0.7,1.5,1.1,2.5,1.1
				c2.2,0,3.5-1.3,3.5-3.4v-8.8h5c3.2,0,5.9-1.2,8.1-3.5c2.2-2.3,3.3-5,3.3-8.2c0-3.4-1.1-6.3-3.4-8.4
				C1235.4,53.5,1232.5,52.5,1229.1,52.5z M1234,63.9c0,1.6-0.5,2.8-1.5,3.8c-1,1-2.3,1.4-3.9,1.4h-4.2V58.9h4.3
				c1.6,0,2.8,0.4,3.8,1.3C1233.6,61.2,1234,62.4,1234,63.9z"/>
			<path fill="#0054A0" d="M1259.8,52.2c-4.8,0-8.8,1.9-11.7,5.6c-2.6,3.3-3.9,7.5-3.9,12.3c0,4.7,1.4,8.8,4,12.2
				c2.9,3.7,6.8,5.6,11.6,5.6c4.8,0,8.7-1.9,11.6-5.6c2.6-3.3,4-7.4,4-12.2c0-4.8-1.3-9-3.9-12.3
				C1268.6,54.1,1264.7,52.2,1259.8,52.2z M1259.8,81.3c-2.8,0-4.9-1.1-6.3-3.4c-1.3-2.1-2-4.8-2-7.9c0-3.2,0.7-5.9,2-7.9
				c1.5-2.2,3.6-3.3,6.4-3.3c2.9,0,4.9,1.1,6.4,3.3c1.3,2,2,4.7,2,7.9c0,1.7-0.2,3.2-0.5,4.4c-0.5,2.1-1.5,3.8-2.8,5
				C1263.5,80.7,1261.8,81.3,1259.8,81.3z"/>
			<path fill="#0054A0" d="M1303.7,78.6c-0.7,0-1.5,0.2-2.4,0.7c-0.5,0.3-1,0.6-1.5,0.8c-1.5,0.7-3.1,1.1-5,1.1
				c-2.5,0-4.5-1.2-6-3.5c-1.4-2.2-2.1-4.8-2.1-7.7c0-2.9,0.7-5.5,2.1-7.7c1.6-2.5,3.5-3.7,6-3.7c1.6,0,2.3,0.1,2.6,0.2
				c0.5,0.2,1,0.4,1.5,0.7l1.5,1.1c1,0.7,1.8,1.1,2.5,1.1c0.8,0,1.6-0.3,2.2-0.9c0.7-0.6,1-1.4,1-2.3c0-1.1-0.5-2.1-1.3-2.9
				c-2.5-2.3-5.7-3.5-9.6-3.5c-4.9,0-8.8,1.8-11.7,5.5c-2.6,3.3-3.9,7.5-3.9,12.3c0,4.8,1.3,8.9,3.9,12.2c2.9,3.7,6.8,5.6,11.7,5.6
				c1.8,0,3.7-0.3,5.5-0.8c2.2-0.6,3.9-1.5,5.1-2.6c0.7-0.7,1.1-1.6,1.1-2.6C1306.7,79.5,1305.2,78.6,1303.7,78.6z"/>
			<path fill="#0054A0" d="M1334.9,78.6c-0.7,0-1.5,0.2-2.4,0.7c-0.5,0.3-1,0.6-1.5,0.8c-1.5,0.7-3.1,1.1-5,1.1
				c-2.5,0-4.5-1.2-6-3.5c-1.4-2.2-2.1-4.8-2.1-7.7c0-2.9,0.7-5.5,2.1-7.7c1.6-2.5,3.5-3.7,6-3.7c1.6,0,2.3,0.1,2.6,0.2
				c0.5,0.2,1,0.4,1.5,0.7l1.5,1.1c1,0.7,1.8,1.1,2.5,1.1c0.8,0,1.6-0.3,2.2-0.9c0.7-0.6,1-1.4,1-2.3c0-1.1-0.5-2.1-1.3-2.9
				c-2.5-2.3-5.7-3.5-9.6-3.5c-4.9,0-8.8,1.8-11.7,5.5c-2.6,3.3-3.9,7.5-3.9,12.3c0,4.8,1.3,8.9,3.9,12.2c2.9,3.7,6.8,5.6,11.7,5.6
				c1.8,0,3.7-0.3,5.5-0.8c2.2-0.6,3.9-1.5,5.1-2.6c0.7-0.7,1.1-1.6,1.1-2.6C1337.9,79.5,1336.4,78.6,1334.9,78.6z"/>
			<path fill="#0054A0" d="M1367.6,52.2c-1,0-2.4,0.4-3.7,2.2L1350,74.3V55.8c0-0.9-0.3-1.8-0.9-2.5c-0.6-0.8-1.5-1.1-2.5-1.1
				c-2.2,0-3.5,1.4-3.5,3.6v28.5c0,2.6,1.7,3.5,3.2,3.5c1,0,2.4-0.3,3.4-1.9l14.3-20.5v19c0,2.1,1.3,3.4,3.5,3.4
				c2.1,0,3.4-1.4,3.4-3.5V55.6C1370.9,53.5,1369.7,52.2,1367.6,52.2z"/>
			<path fill="#0054A0" d="M1402.1,52.2c-1,0-2.4,0.4-3.7,2.2l-13.9,19.9V55.8c0-0.9-0.3-1.8-0.9-2.5c-0.6-0.8-1.5-1.1-2.5-1.1
				c-2.2,0-3.5,1.4-3.5,3.6v28.5c0,2.6,1.7,3.5,3.2,3.5c1,0,2.4-0.3,3.4-1.9l14.3-20.5v19c0,2.1,1.3,3.4,3.5,3.4
				c2.1,0,3.4-1.4,3.4-3.5V55.6C1405.4,53.5,1404.2,52.2,1402.1,52.2z"/>
		</g>
		<g>
			<path fill="#0054A0" d="M723.4,52.5h-11.1c-1,0-1.9,0.5-2.5,1.4c-0.5,0.7-0.7,1.5-0.7,2.3v28.2c0,0.9,0.3,1.7,1,2.4
				c0.7,0.7,1.5,1.1,2.5,1.1c2.2,0,3.5-1.4,3.5-3.6V58.9h7.4c2.1,0,3.4-1.2,3.4-3.2S725.5,52.5,723.4,52.5z"/>
			<path fill="#0054A0" d="M742.7,52.5h-8c-2.1,0-3.4,1.4-3.4,3.6v28.2c0,0.9,0.3,1.7,1,2.4c0.7,0.7,1.5,1.1,2.5,1.1
				c2.2,0,3.5-1.3,3.5-3.4v-8.8h5c3.2,0,5.9-1.2,8.1-3.5c2.2-2.3,3.3-5,3.3-8.2c0-3.4-1.1-6.3-3.4-8.4
				C749,53.5,746.1,52.5,742.7,52.5z M747.6,63.9c0,1.6-0.5,2.8-1.5,3.8c-1,1-2.3,1.4-3.9,1.4h-4.2V58.9h4.3c1.6,0,2.8,0.4,3.8,1.3
				C747.2,61.2,747.6,62.4,747.6,63.9z"/>
			<path fill="#0054A0" d="M779.5,52.2c-1.5,0-2.6,0.8-3.2,2.2L770,68.6l-7.3-14.4c-0.7-1.3-1.8-2-3.2-2c-0.9,0-1.7,0.3-2.3,1
				c-0.6,0.6-0.9,1.4-0.9,2.2c0,0.5,0.2,1.1,0.6,1.9l9.7,19l-2.7,6c-0.5,1-0.7,1.7-0.7,2.3c0,0.9,0.3,1.7,0.9,2.3
				c0.6,0.6,1.4,0.9,2.3,0.9c1.5,0,2.7-0.8,3.3-2.3l12.8-28.7c0.2-0.5,0.3-1,0.3-1.5C782.8,53.4,781.5,52.2,779.5,52.2z M758.2,54.2
				L758.2,54.2L758.2,54.2L758.2,54.2z"/>
			<path fill="#0054A0" d="M805.1,68.5c1.7-1.6,2.6-3.8,2.6-6.4c0-3.2-1.1-5.7-3.1-7.4c-1.9-1.6-4.4-2.4-7.6-2.4
				c-4,0-7.3,1.2-9.8,3.4c-1.1,1-1.3,2.1-1.3,2.8c0,2.4,1.5,3.3,3,3.3c0.9,0,1.8-0.4,2.5-1.1c0.2-0.2,0.7-0.6,1.6-1.1
				c1.2-0.6,2.6-1,4.1-1c1.3,0,2.3,0.3,2.9,1.1c0.7,0.8,1,1.6,1,2.5c0,0.9-0.3,1.7-1.1,2.5c-0.5,0.6-1.3,0.9-2.4,1l-3.5,0.2l-0.1,0
				c-1.8,0.3-2.8,1.4-2.8,3.1c0,1.3,0.7,2.4,1.8,2.8c0.6,0.3,1.5,0.4,2.7,0.4h1.3c2,0,3,0.4,3.4,0.7c1,0.7,1.4,2.2,1.4,4.4
				c0,1.2-0.4,2.2-1.3,2.9c-0.9,0.8-2,1.2-3.4,1.2c-1.5,0-2.7-0.2-3.7-0.6c-0.9-0.3-2-1-3.2-2c-0.7-0.6-1.5-0.8-2.4-0.8
				c-1.4,0-3,0.9-3,3.3c0,0.9,0.3,1.7,1,2.5c1.2,1.4,3,2.5,5.4,3.2c2,0.6,3.9,0.9,5.9,0.9c3.5,0,6.4-1,8.5-2.9
				c2.2-2,3.3-4.7,3.3-8.3C808.7,72.3,807,69.9,805.1,68.5z"/>
			<path fill="#0054A0" d="M828.6,52.2c-4.8,0-8.8,1.9-11.7,5.6c-2.6,3.3-3.9,7.5-3.9,12.3c0,4.7,1.4,8.8,4,12.2
				c2.9,3.7,6.8,5.6,11.6,5.6c4.8,0,8.7-1.9,11.6-5.6c2.6-3.3,4-7.4,4-12.2c0-4.8-1.3-9-3.9-12.3C837.4,54.1,833.4,52.2,828.6,52.2z
				 M828.6,81.3c-2.8,0-4.9-1.1-6.3-3.4c-1.3-2.1-2-4.8-2-7.9c0-3.2,0.7-5.9,2-7.9c1.5-2.2,3.6-3.3,6.4-3.3c2.9,0,4.9,1.1,6.4,3.3
				c1.3,2,2,4.7,2,7.9c0,1.7-0.2,3.2-0.5,4.4c-0.5,2.1-1.5,3.8-2.8,5C832.2,80.7,830.6,81.3,828.6,81.3z"/>
			<path fill="#0054A0" d="M872.7,52.5h-20c-1,0-1.9,0.5-2.5,1.4c-0.5,0.7-0.7,1.5-0.7,2.3v28.2c0,0.9,0.3,1.7,1,2.4
				c0.7,0.7,1.5,1.1,2.5,1.1c2.2,0,3.5-1.4,3.5-3.6V58.9h12.5v25.3c0,1,0.3,1.8,1,2.5c0.7,0.7,1.5,1.1,2.5,1.1c1,0,1.8-0.4,2.5-1.1
				c0.6-0.7,0.9-1.5,0.9-2.4V56.2C875.9,53.4,874.2,52.5,872.7,52.5z"/>
			<path fill="#0054A0" d="M897.8,59.2c2,0,3.3-1.3,3.3-3.3c0-2.1-1.2-3.3-3.2-3.3h-12.1c-1,0-1.9,0.5-2.5,1.4
				c-0.5,0.7-0.7,1.5-0.7,2.3V84c0,2.2,1.3,3.6,3.4,3.6h11.6c2.1,0,3.4-1.2,3.4-3.3c0-2.5-1.6-3.4-3.2-3.4h-8.4v-8.6h7.7
				c2.1,0,3.4-1.2,3.4-3.2s-1.3-3.2-3.3-3.2h-7.8v-6.7H897.8z"/>
			<path fill="#0054A0" d="M918.4,52.5h-8c-2.1,0-3.4,1.4-3.4,3.6v28.2c0,0.9,0.3,1.7,1,2.4c0.7,0.7,1.5,1.1,2.5,1.1
				c2.2,0,3.5-1.3,3.5-3.4v-8.8h5c3.2,0,5.9-1.2,8.1-3.5c2.2-2.3,3.3-5,3.3-8.2c0-3.4-1.1-6.3-3.4-8.4
				C924.6,53.5,921.8,52.5,918.4,52.5z M923.3,63.9c0,1.6-0.5,2.8-1.5,3.8c-1,1-2.3,1.4-3.9,1.4h-4.2V58.9h4.3
				c1.6,0,2.8,0.4,3.8,1.3C922.9,61.2,923.3,62.4,923.3,63.9z"/>
			<path fill="#0054A0" d="M950,59.2c2,0,3.3-1.3,3.3-3.3c0-2.1-1.2-3.3-3.2-3.3H938c-1,0-1.9,0.5-2.5,1.4c-0.5,0.7-0.7,1.5-0.7,2.3
				V84c0,2.2,1.3,3.6,3.4,3.6h11.6c2.1,0,3.4-1.2,3.4-3.3c0-2.5-1.6-3.4-3.2-3.4h-8.4v-8.6h7.7c2.1,0,3.4-1.2,3.4-3.2
				s-1.3-3.2-3.3-3.2h-7.8v-6.7H950z"/>
			<path fill="#0054A0" d="M977.4,68.3c0.5-0.5,0.9-1.1,1.3-1.7c0.9-1.5,1.3-3.2,1.3-5.1c0-2.7-1.1-4.9-3.2-6.7
				c-1.9-1.6-4.2-2.4-6.9-2.4h-7.2c-2.2,0-3.5,1.4-3.5,3.6V84c0,2.2,1.4,3.6,3.7,3.6h7.9c3.1,0,5.8-1,8-2.9c2.4-2.1,3.6-4.7,3.6-7.9
				c0-2.5-0.8-4.6-2.3-6.3C979.4,69.6,978.4,68.9,977.4,68.3z M970.4,72.3c1.6,0,2.8,0.4,3.8,1.2c0.9,0.7,1.3,1.8,1.3,3.3
				c0,1.5-0.5,2.5-1.5,3.3c-1,0.7-2.4,1.1-4.1,1.1h-3.8v-8.8H970.4z M969.2,66h-3.1v-7.1h3.6c1,0,1.8,0.3,2.4,1
				c0.6,0.7,0.9,1.5,0.9,2.5c0,1.1-0.3,1.9-1,2.6C971.3,65.7,970.4,66,969.2,66z"/>
			<path fill="#0054A0" d="M1002,52.2c-4.8,0-8.8,1.9-11.7,5.6c-2.6,3.3-3.9,7.5-3.9,12.3c0,4.7,1.4,8.8,4,12.2
				c2.9,3.7,6.8,5.6,11.6,5.6c4.8,0,8.7-1.9,11.6-5.6c2.6-3.3,4-7.4,4-12.2c0-4.8-1.3-9-3.9-12.3C1010.8,54.1,1006.9,52.2,1002,52.2
				z M1002,81.3c-2.8,0-4.9-1.1-6.3-3.4c-1.3-2.1-2-4.8-2-7.9c0-3.2,0.7-5.9,2-7.9c1.5-2.2,3.6-3.3,6.4-3.3c2.9,0,4.9,1.1,6.4,3.3
				c1.3,2,2,4.7,2,7.9c0,1.7-0.2,3.2-0.5,4.4c-0.5,2.1-1.5,3.8-2.8,5C1005.7,80.7,1004,81.3,1002,81.3z"/>
			<path fill="#0054A0" d="M1042.1,68.5c1.7-1.6,2.6-3.8,2.6-6.4c0-3.2-1.1-5.7-3.1-7.4c-1.9-1.6-4.4-2.4-7.6-2.4
				c-4,0-7.3,1.2-9.8,3.4c-1.1,1-1.3,2.1-1.3,2.8c0,2.4,1.5,3.3,3,3.3c0.9,0,1.8-0.4,2.5-1.1c0.2-0.2,0.7-0.6,1.6-1.1
				c1.2-0.6,2.6-1,4.1-1c1.3,0,2.3,0.3,2.9,1.1c0.7,0.8,1,1.6,1,2.5c0,0.9-0.3,1.7-1.1,2.5c-0.5,0.6-1.3,0.9-2.4,1l-3.5,0.2l-0.1,0
				c-1.8,0.3-2.8,1.4-2.8,3.1c0,1.3,0.7,2.4,1.8,2.8c0.6,0.3,1.5,0.4,2.7,0.4h1.3c2,0,3,0.4,3.4,0.7c1,0.7,1.4,2.2,1.4,4.4
				c0,1.2-0.4,2.2-1.3,2.9c-0.9,0.8-2,1.2-3.4,1.2c-1.5,0-2.7-0.2-3.7-0.6c-0.9-0.3-2-1-3.2-2c-0.7-0.6-1.5-0.8-2.4-0.8
				c-1.4,0-3,0.9-3,3.3c0,0.9,0.3,1.7,1,2.5c1.2,1.4,3,2.5,5.4,3.2c2,0.6,3.9,0.9,5.9,0.9c3.5,0,6.4-1,8.5-2.9
				c2.2-2,3.3-4.7,3.3-8.3C1045.7,72.3,1044,69.9,1042.1,68.5z"/>
			<path fill="#0054A0" d="M1062.5,69.1l12-10.8c0.9-0.7,1.4-1.7,1.4-2.8c0-0.8-0.3-1.6-0.8-2.3c-0.6-0.7-1.4-1.1-2.4-1.1
				c-1,0-1.9,0.4-2.8,1.2l-11.7,10.7v-8.4c0-2.2-1.3-3.5-3.5-3.5c-1,0-1.9,0.4-2.5,1.1c-0.6,0.7-0.9,1.5-0.9,2.5v28.6
				c0,0.9,0.3,1.7,1,2.4c0.7,0.7,1.5,1.1,2.5,1.1c2.2,0,3.5-1.4,3.5-3.5V74.3l12.4,12.2c0.9,0.9,2,1.4,3.1,1.4
				c2.5,0,3.4-1.6,3.4-3.2c0-1-0.4-2-1.2-2.7L1062.5,69.1z"/>
			<path fill="#0054A0" d="M1105.3,52.2c-1,0-2.4,0.4-3.7,2.2l-13.9,19.9V55.8c0-0.9-0.3-1.8-0.9-2.5c-0.6-0.8-1.5-1.1-2.5-1.1
				c-2.2,0-3.5,1.4-3.5,3.6v28.5c0,2.6,1.7,3.5,3.2,3.5c1,0,2.4-0.3,3.4-1.9l14.3-20.5v19c0,2.1,1.3,3.4,3.5,3.4
				c2.1,0,3.4-1.4,3.4-3.5V55.6C1108.6,53.5,1107.3,52.2,1105.3,52.2z"/>
			<path fill="#0054A0" d="M1155.5,52.5h-20c-1,0-1.9,0.5-2.5,1.4c-0.5,0.7-0.7,1.5-0.7,2.3v28.2c0,0.9,0.3,1.7,1,2.4
				c0.7,0.7,1.5,1.1,2.5,1.1c2.2,0,3.5-1.4,3.5-3.6V58.9h12.5v25.3c0,1,0.3,1.8,1,2.5c0.7,0.7,1.5,1.1,2.5,1.1c1,0,1.8-0.4,2.5-1.1
				c0.6-0.7,0.9-1.5,0.9-2.4V56.2C1158.7,53.4,1157,52.5,1155.5,52.5z"/>
			<path fill="#0054A0" d="M1179.6,52.2c-4.8,0-8.8,1.9-11.7,5.6c-2.6,3.3-3.9,7.5-3.9,12.3c0,4.7,1.4,8.8,4,12.2
				c2.9,3.7,6.8,5.6,11.6,5.6c4.8,0,8.7-1.9,11.6-5.6c2.6-3.3,4-7.4,4-12.2c0-4.8-1.3-9-3.9-12.3
				C1188.4,54.1,1184.5,52.2,1179.6,52.2z M1179.6,81.3c-2.8,0-4.9-1.1-6.3-3.4c-1.3-2.1-2-4.8-2-7.9c0-3.2,0.7-5.9,2-7.9
				c1.5-2.2,3.6-3.3,6.4-3.3c2.9,0,4.9,1.1,6.4,3.3c1.3,2,2,4.7,2,7.9c0,1.7-0.2,3.2-0.5,4.4c-0.5,2.1-1.5,3.8-2.8,5
				C1183.3,80.7,1181.6,81.3,1179.6,81.3z"/>
			<path fill="#0054A0" d="M1229.1,52.5h-8c-2.1,0-3.4,1.4-3.4,3.6v28.2c0,0.9,0.3,1.7,1,2.4c0.7,0.7,1.5,1.1,2.5,1.1
				c2.2,0,3.5-1.3,3.5-3.4v-8.8h5c3.2,0,5.9-1.2,8.1-3.5c2.2-2.3,3.3-5,3.3-8.2c0-3.4-1.1-6.3-3.4-8.4
				C1235.4,53.5,1232.5,52.5,1229.1,52.5z M1234,63.9c0,1.6-0.5,2.8-1.5,3.8c-1,1-2.3,1.4-3.9,1.4h-4.2V58.9h4.3
				c1.6,0,2.8,0.4,3.8,1.3C1233.6,61.2,1234,62.4,1234,63.9z"/>
			<path fill="#0054A0" d="M1259.8,52.2c-4.8,0-8.8,1.9-11.7,5.6c-2.6,3.3-3.9,7.5-3.9,12.3c0,4.7,1.4,8.8,4,12.2
				c2.9,3.7,6.8,5.6,11.6,5.6c4.8,0,8.7-1.9,11.6-5.6c2.6-3.3,4-7.4,4-12.2c0-4.8-1.3-9-3.9-12.3
				C1268.6,54.1,1264.7,52.2,1259.8,52.2z M1259.8,81.3c-2.8,0-4.9-1.1-6.3-3.4c-1.3-2.1-2-4.8-2-7.9c0-3.2,0.7-5.9,2-7.9
				c1.5-2.2,3.6-3.3,6.4-3.3c2.9,0,4.9,1.1,6.4,3.3c1.3,2,2,4.7,2,7.9c0,1.7-0.2,3.2-0.5,4.4c-0.5,2.1-1.5,3.8-2.8,5
				C1263.5,80.7,1261.8,81.3,1259.8,81.3z"/>
			<path fill="#0054A0" d="M1303.7,78.6c-0.7,0-1.5,0.2-2.4,0.7c-0.5,0.3-1,0.6-1.5,0.8c-1.5,0.7-3.1,1.1-5,1.1
				c-2.5,0-4.5-1.2-6-3.5c-1.4-2.2-2.1-4.8-2.1-7.7c0-2.9,0.7-5.5,2.1-7.7c1.6-2.5,3.5-3.7,6-3.7c1.6,0,2.3,0.1,2.6,0.2
				c0.5,0.2,1,0.4,1.5,0.7l1.5,1.1c1,0.7,1.8,1.1,2.5,1.1c0.8,0,1.6-0.3,2.2-0.9c0.7-0.6,1-1.4,1-2.3c0-1.1-0.5-2.1-1.3-2.9
				c-2.5-2.3-5.7-3.5-9.6-3.5c-4.9,0-8.8,1.8-11.7,5.5c-2.6,3.3-3.9,7.5-3.9,12.3c0,4.8,1.3,8.9,3.9,12.2c2.9,3.7,6.8,5.6,11.7,5.6
				c1.8,0,3.7-0.3,5.5-0.8c2.2-0.6,3.9-1.5,5.1-2.6c0.7-0.7,1.1-1.6,1.1-2.6C1306.7,79.5,1305.2,78.6,1303.7,78.6z"/>
			<path fill="#0054A0" d="M1334.9,78.6c-0.7,0-1.5,0.2-2.4,0.7c-0.5,0.3-1,0.6-1.5,0.8c-1.5,0.7-3.1,1.1-5,1.1
				c-2.5,0-4.5-1.2-6-3.5c-1.4-2.2-2.1-4.8-2.1-7.7c0-2.9,0.7-5.5,2.1-7.7c1.6-2.5,3.5-3.7,6-3.7c1.6,0,2.3,0.1,2.6,0.2
				c0.5,0.2,1,0.4,1.5,0.7l1.5,1.1c1,0.7,1.8,1.1,2.5,1.1c0.8,0,1.6-0.3,2.2-0.9c0.7-0.6,1-1.4,1-2.3c0-1.1-0.5-2.1-1.3-2.9
				c-2.5-2.3-5.7-3.5-9.6-3.5c-4.9,0-8.8,1.8-11.7,5.5c-2.6,3.3-3.9,7.5-3.9,12.3c0,4.8,1.3,8.9,3.9,12.2c2.9,3.7,6.8,5.6,11.7,5.6
				c1.8,0,3.7-0.3,5.5-0.8c2.2-0.6,3.9-1.5,5.1-2.6c0.7-0.7,1.1-1.6,1.1-2.6C1337.9,79.5,1336.4,78.6,1334.9,78.6z"/>
			<path fill="#0054A0" d="M1367.6,52.2c-1,0-2.4,0.4-3.7,2.2L1350,74.3V55.8c0-0.9-0.3-1.8-0.9-2.5c-0.6-0.8-1.5-1.1-2.5-1.1
				c-2.2,0-3.5,1.4-3.5,3.6v28.5c0,2.6,1.7,3.5,3.2,3.5c1,0,2.4-0.3,3.4-1.9l14.3-20.5v19c0,2.1,1.3,3.4,3.5,3.4
				c2.1,0,3.4-1.4,3.4-3.5V55.6C1370.9,53.5,1369.7,52.2,1367.6,52.2z"/>
			<path fill="#0054A0" d="M1402.1,52.2c-1,0-2.4,0.4-3.7,2.2l-13.9,19.9V55.8c0-0.9-0.3-1.8-0.9-2.5c-0.6-0.8-1.5-1.1-2.5-1.1
				c-2.2,0-3.5,1.4-3.5,3.6v28.5c0,2.6,1.7,3.5,3.2,3.5c1,0,2.4-0.3,3.4-1.9l14.3-20.5v19c0,2.1,1.3,3.4,3.5,3.4
				c2.1,0,3.4-1.4,3.4-3.5V55.6C1405.4,53.5,1404.2,52.2,1402.1,52.2z"/>
		</g>
	</g>
</g>
</svg>
